<?xml version="1.0" encoding="utf-8" standalone="no"?>
<!DOCTYPE svg PUBLIC "-//W3C//DTD SVG 1.1//EN"
  "http://www.w3.org/Graphics/SVG/1.1/DTD/svg11.dtd">
<svg xmlns:xlink="http://www.w3.org/1999/xlink" width="900pt" height="460.8pt" viewBox="0 0 900 460.8" xmlns="http://www.w3.org/2000/svg" version="1.1">
 <metadata>
  <rdf:RDF xmlns:dc="http://purl.org/dc/elements/1.1/" xmlns:cc="http://creativecommons.org/ns#" xmlns:rdf="http://www.w3.org/1999/02/22-rdf-syntax-ns#">
   <cc:Work>
    <dc:type rdf:resource="http://purl.org/dc/dcmitype/StillImage"/>
    <dc:format>image/svg+xml</dc:format>
    <dc:creator>
     <cc:Agent>
      <dc:title>Matplotlib v3.10.8, https://matplotlib.org/</dc:title>
     </cc:Agent>
    </dc:creator>
   </cc:Work>
  </rdf:RDF>
 </metadata>
 <defs>
  <style type="text/css">*{stroke-linejoin: round; stroke-linecap: butt}</style>
 </defs>
 <g id="figure_1">
  <g id="patch_1">
   <path d="M 0 460.8 
L 900 460.8 
L 900 0 
L 0 0 
z
" style="fill: #ffffff"/>
  </g>
  <g id="axes_1">
   <g id="patch_2">
    <path d="M 81 377.856 
L 877.5 377.856 
L 877.5 105.984 
L 81 105.984 
z
" style="fill: #ffffff"/>
   </g>
   <g id="matplotlib.axis_1">
    <g id="xtick_1">
     <g id="line2d_1">
      <defs>
       <path id="m47bac46885" d="M 0 0 
L 0 3.5 
" style="stroke: #000000; stroke-width: 0.8"/>
      </defs>
      <g>
       <use xlink:href="#m47bac46885" x="85.555147" y="377.856" style="stroke: #000000; stroke-width: 0.8"/>
      </g>
     </g>
     <g id="text_1">
      <!-- Mar -->
      <g transform="translate(76.121553 392.454438) scale(0.1 -0.1)">
       <defs>
        <path id="DejaVuSans-4d" d="M 628 4666 
L 1569 4666 
L 2759 1491 
L 3956 4666 
L 4897 4666 
L 4897 0 
L 4281 0 
L 4281 4097 
L 3078 897 
L 2444 897 
L 1241 4097 
L 1241 0 
L 628 0 
L 628 4666 
z
" transform="scale(0.015625)"/>
        <path id="DejaVuSans-61" d="M 2194 1759 
Q 1497 1759 1228 1600 
Q 959 1441 959 1056 
Q 959 750 1161 570 
Q 1363 391 1709 391 
Q 2188 391 2477 730 
Q 2766 1069 2766 1631 
L 2766 1759 
L 2194 1759 
z
M 3341 1997 
L 3341 0 
L 2766 0 
L 2766 531 
Q 2569 213 2275 61 
Q 1981 -91 1556 -91 
Q 1019 -91 701 211 
Q 384 513 384 1019 
Q 384 1609 779 1909 
Q 1175 2209 1959 2209 
L 2766 2209 
L 2766 2266 
Q 2766 2663 2505 2880 
Q 2244 3097 1772 3097 
Q 1472 3097 1187 3025 
Q 903 2953 641 2809 
L 641 3341 
Q 956 3463 1253 3523 
Q 1550 3584 1831 3584 
Q 2591 3584 2966 3190 
Q 3341 2797 3341 1997 
z
" transform="scale(0.015625)"/>
        <path id="DejaVuSans-72" d="M 2631 2963 
Q 2534 3019 2420 3045 
Q 2306 3072 2169 3072 
Q 1681 3072 1420 2755 
Q 1159 2438 1159 1844 
L 1159 0 
L 581 0 
L 581 3500 
L 1159 3500 
L 1159 2956 
Q 1341 3275 1631 3429 
Q 1922 3584 2338 3584 
Q 2397 3584 2469 3576 
Q 2541 3569 2628 3553 
L 2631 2963 
z
" transform="scale(0.015625)"/>
       </defs>
       <use xlink:href="#DejaVuSans-4d"/>
       <use xlink:href="#DejaVuSans-61" transform="translate(86.279297 0)"/>
       <use xlink:href="#DejaVuSans-72" transform="translate(147.558594 0)"/>
      </g>
     </g>
    </g>
    <g id="xtick_2">
     <g id="line2d_2">
      <g>
       <use xlink:href="#m47bac46885" x="196.180147" y="377.856" style="stroke: #000000; stroke-width: 0.8"/>
      </g>
     </g>
     <g id="text_2">
      <!-- Apr -->
      <g transform="translate(187.530147 392.454438) scale(0.1 -0.1)">
       <defs>
        <path id="DejaVuSans-41" d="M 2188 4044 
L 1331 1722 
L 3047 1722 
L 2188 4044 
z
M 1831 4666 
L 2547 4666 
L 4325 0 
L 3669 0 
L 3244 1197 
L 1141 1197 
L 716 0 
L 50 0 
L 1831 4666 
z
" transform="scale(0.015625)"/>
        <path id="DejaVuSans-70" d="M 1159 525 
L 1159 -1331 
L 581 -1331 
L 581 3500 
L 1159 3500 
L 1159 2969 
Q 1341 3281 1617 3432 
Q 1894 3584 2278 3584 
Q 2916 3584 3314 3078 
Q 3713 2572 3713 1747 
Q 3713 922 3314 415 
Q 2916 -91 2278 -91 
Q 1894 -91 1617 61 
Q 1341 213 1159 525 
z
M 3116 1747 
Q 3116 2381 2855 2742 
Q 2594 3103 2138 3103 
Q 1681 3103 1420 2742 
Q 1159 2381 1159 1747 
Q 1159 1113 1420 752 
Q 1681 391 2138 391 
Q 2594 391 2855 752 
Q 3116 1113 3116 1747 
z
" transform="scale(0.015625)"/>
       </defs>
       <use xlink:href="#DejaVuSans-41"/>
       <use xlink:href="#DejaVuSans-70" transform="translate(68.408203 0)"/>
       <use xlink:href="#DejaVuSans-72" transform="translate(131.884766 0)"/>
      </g>
     </g>
    </g>
    <g id="xtick_3">
     <g id="line2d_3">
      <g>
       <use xlink:href="#m47bac46885" x="332.834559" y="377.856" style="stroke: #000000; stroke-width: 0.8"/>
      </g>
     </g>
     <g id="text_3">
      <!-- May -->
      <g transform="translate(322.497059 392.454438) scale(0.1 -0.1)">
       <defs>
        <path id="DejaVuSans-79" d="M 2059 -325 
Q 1816 -950 1584 -1140 
Q 1353 -1331 966 -1331 
L 506 -1331 
L 506 -850 
L 844 -850 
Q 1081 -850 1212 -737 
Q 1344 -625 1503 -206 
L 1606 56 
L 191 3500 
L 800 3500 
L 1894 763 
L 2988 3500 
L 3597 3500 
L 2059 -325 
z
" transform="scale(0.015625)"/>
       </defs>
       <use xlink:href="#DejaVuSans-4d"/>
       <use xlink:href="#DejaVuSans-61" transform="translate(86.279297 0)"/>
       <use xlink:href="#DejaVuSans-79" transform="translate(147.558594 0)"/>
      </g>
     </g>
    </g>
    <g id="xtick_4">
     <g id="line2d_4">
      <g>
       <use xlink:href="#m47bac46885" x="462.981618" y="377.856" style="stroke: #000000; stroke-width: 0.8"/>
      </g>
     </g>
     <g id="text_4">
      <!-- Jun -->
      <g transform="translate(455.169118 392.454438) scale(0.1 -0.1)">
       <defs>
        <path id="DejaVuSans-4a" d="M 628 4666 
L 1259 4666 
L 1259 325 
Q 1259 -519 939 -900 
Q 619 -1281 -91 -1281 
L -331 -1281 
L -331 -750 
L -134 -750 
Q 284 -750 456 -515 
Q 628 -281 628 325 
L 628 4666 
z
" transform="scale(0.015625)"/>
        <path id="DejaVuSans-75" d="M 544 1381 
L 544 3500 
L 1119 3500 
L 1119 1403 
Q 1119 906 1312 657 
Q 1506 409 1894 409 
Q 2359 409 2629 706 
Q 2900 1003 2900 1516 
L 2900 3500 
L 3475 3500 
L 3475 0 
L 2900 0 
L 2900 538 
Q 2691 219 2414 64 
Q 2138 -91 1772 -91 
Q 1169 -91 856 284 
Q 544 659 544 1381 
z
M 1991 3584 
L 1991 3584 
z
" transform="scale(0.015625)"/>
        <path id="DejaVuSans-6e" d="M 3513 2113 
L 3513 0 
L 2938 0 
L 2938 2094 
Q 2938 2591 2744 2837 
Q 2550 3084 2163 3084 
Q 1697 3084 1428 2787 
Q 1159 2491 1159 1978 
L 1159 0 
L 581 0 
L 581 3500 
L 1159 3500 
L 1159 2956 
Q 1366 3272 1645 3428 
Q 1925 3584 2291 3584 
Q 2894 3584 3203 3211 
Q 3513 2838 3513 2113 
z
" transform="scale(0.015625)"/>
       </defs>
       <use xlink:href="#DejaVuSans-4a"/>
       <use xlink:href="#DejaVuSans-75" transform="translate(29.492188 0)"/>
       <use xlink:href="#DejaVuSans-6e" transform="translate(92.871094 0)"/>
      </g>
     </g>
    </g>
    <g id="xtick_5">
     <g id="line2d_5">
      <g>
       <use xlink:href="#m47bac46885" x="599.636029" y="377.856" style="stroke: #000000; stroke-width: 0.8"/>
      </g>
     </g>
     <g id="text_5">
      <!-- Jul -->
      <g transform="translate(593.603217 392.454438) scale(0.1 -0.1)">
       <defs>
        <path id="DejaVuSans-6c" d="M 603 4863 
L 1178 4863 
L 1178 0 
L 603 0 
L 603 4863 
z
" transform="scale(0.015625)"/>
       </defs>
       <use xlink:href="#DejaVuSans-4a"/>
       <use xlink:href="#DejaVuSans-75" transform="translate(29.492188 0)"/>
       <use xlink:href="#DejaVuSans-6c" transform="translate(92.871094 0)"/>
      </g>
     </g>
    </g>
    <g id="xtick_6">
     <g id="line2d_6">
      <g>
       <use xlink:href="#m47bac46885" x="742.797794" y="377.856" style="stroke: #000000; stroke-width: 0.8"/>
      </g>
     </g>
     <g id="text_6">
      <!-- Aug -->
      <g transform="translate(733.034513 392.454438) scale(0.1 -0.1)">
       <defs>
        <path id="DejaVuSans-67" d="M 2906 1791 
Q 2906 2416 2648 2759 
Q 2391 3103 1925 3103 
Q 1463 3103 1205 2759 
Q 947 2416 947 1791 
Q 947 1169 1205 825 
Q 1463 481 1925 481 
Q 2391 481 2648 825 
Q 2906 1169 2906 1791 
z
M 3481 434 
Q 3481 -459 3084 -895 
Q 2688 -1331 1869 -1331 
Q 1566 -1331 1297 -1286 
Q 1028 -1241 775 -1147 
L 775 -588 
Q 1028 -725 1275 -790 
Q 1522 -856 1778 -856 
Q 2344 -856 2625 -561 
Q 2906 -266 2906 331 
L 2906 616 
Q 2728 306 2450 153 
Q 2172 0 1784 0 
Q 1141 0 747 490 
Q 353 981 353 1791 
Q 353 2603 747 3093 
Q 1141 3584 1784 3584 
Q 2172 3584 2450 3431 
Q 2728 3278 2906 2969 
L 2906 3500 
L 3481 3500 
L 3481 434 
z
" transform="scale(0.015625)"/>
       </defs>
       <use xlink:href="#DejaVuSans-41"/>
       <use xlink:href="#DejaVuSans-75" transform="translate(68.408203 0)"/>
       <use xlink:href="#DejaVuSans-67" transform="translate(131.787109 0)"/>
      </g>
     </g>
    </g>
    <g id="text_7">
     <!-- Session date -->
     <g transform="translate(440.920313 413.65225) scale(0.12 -0.12)">
      <defs>
       <path id="DejaVuSans-53" d="M 3425 4513 
L 3425 3897 
Q 3066 4069 2747 4153 
Q 2428 4238 2131 4238 
Q 1616 4238 1336 4038 
Q 1056 3838 1056 3469 
Q 1056 3159 1242 3001 
Q 1428 2844 1947 2747 
L 2328 2669 
Q 3034 2534 3370 2195 
Q 3706 1856 3706 1288 
Q 3706 609 3251 259 
Q 2797 -91 1919 -91 
Q 1588 -91 1214 -16 
Q 841 59 441 206 
L 441 856 
Q 825 641 1194 531 
Q 1563 422 1919 422 
Q 2459 422 2753 634 
Q 3047 847 3047 1241 
Q 3047 1584 2836 1778 
Q 2625 1972 2144 2069 
L 1759 2144 
Q 1053 2284 737 2584 
Q 422 2884 422 3419 
Q 422 4038 858 4394 
Q 1294 4750 2059 4750 
Q 2388 4750 2728 4690 
Q 3069 4631 3425 4513 
z
" transform="scale(0.015625)"/>
       <path id="DejaVuSans-65" d="M 3597 1894 
L 3597 1613 
L 953 1613 
Q 991 1019 1311 708 
Q 1631 397 2203 397 
Q 2534 397 2845 478 
Q 3156 559 3463 722 
L 3463 178 
Q 3153 47 2828 -22 
Q 2503 -91 2169 -91 
Q 1331 -91 842 396 
Q 353 884 353 1716 
Q 353 2575 817 3079 
Q 1281 3584 2069 3584 
Q 2775 3584 3186 3129 
Q 3597 2675 3597 1894 
z
M 3022 2063 
Q 3016 2534 2758 2815 
Q 2500 3097 2075 3097 
Q 1594 3097 1305 2825 
Q 1016 2553 972 2059 
L 3022 2063 
z
" transform="scale(0.015625)"/>
       <path id="DejaVuSans-73" d="M 2834 3397 
L 2834 2853 
Q 2591 2978 2328 3040 
Q 2066 3103 1784 3103 
Q 1356 3103 1142 2972 
Q 928 2841 928 2578 
Q 928 2378 1081 2264 
Q 1234 2150 1697 2047 
L 1894 2003 
Q 2506 1872 2764 1633 
Q 3022 1394 3022 966 
Q 3022 478 2636 193 
Q 2250 -91 1575 -91 
Q 1294 -91 989 -36 
Q 684 19 347 128 
L 347 722 
Q 666 556 975 473 
Q 1284 391 1588 391 
Q 1994 391 2212 530 
Q 2431 669 2431 922 
Q 2431 1156 2273 1281 
Q 2116 1406 1581 1522 
L 1381 1569 
Q 847 1681 609 1914 
Q 372 2147 372 2553 
Q 372 3047 722 3315 
Q 1072 3584 1716 3584 
Q 2034 3584 2315 3537 
Q 2597 3491 2834 3397 
z
" transform="scale(0.015625)"/>
       <path id="DejaVuSans-69" d="M 603 3500 
L 1178 3500 
L 1178 0 
L 603 0 
L 603 3500 
z
M 603 4863 
L 1178 4863 
L 1178 4134 
L 603 4134 
L 603 4863 
z
" transform="scale(0.015625)"/>
       <path id="DejaVuSans-6f" d="M 1959 3097 
Q 1497 3097 1228 2736 
Q 959 2375 959 1747 
Q 959 1119 1226 758 
Q 1494 397 1959 397 
Q 2419 397 2687 759 
Q 2956 1122 2956 1747 
Q 2956 2369 2687 2733 
Q 2419 3097 1959 3097 
z
M 1959 3584 
Q 2709 3584 3137 3096 
Q 3566 2609 3566 1747 
Q 3566 888 3137 398 
Q 2709 -91 1959 -91 
Q 1206 -91 779 398 
Q 353 888 353 1747 
Q 353 2609 779 3096 
Q 1206 3584 1959 3584 
z
" transform="scale(0.015625)"/>
       <path id="DejaVuSans-20" transform="scale(0.015625)"/>
       <path id="DejaVuSans-64" d="M 2906 2969 
L 2906 4863 
L 3481 4863 
L 3481 0 
L 2906 0 
L 2906 525 
Q 2725 213 2448 61 
Q 2172 -91 1784 -91 
Q 1150 -91 751 415 
Q 353 922 353 1747 
Q 353 2572 751 3078 
Q 1150 3584 1784 3584 
Q 2172 3584 2448 3432 
Q 2725 3281 2906 2969 
z
M 947 1747 
Q 947 1113 1208 752 
Q 1469 391 1925 391 
Q 2381 391 2643 752 
Q 2906 1113 2906 1747 
Q 2906 2381 2643 2742 
Q 2381 3103 1925 3103 
Q 1469 3103 1208 2742 
Q 947 2381 947 1747 
z
" transform="scale(0.015625)"/>
       <path id="DejaVuSans-74" d="M 1172 4494 
L 1172 3500 
L 2356 3500 
L 2356 3053 
L 1172 3053 
L 1172 1153 
Q 1172 725 1289 603 
Q 1406 481 1766 481 
L 2356 481 
L 2356 0 
L 1766 0 
Q 1100 0 847 248 
Q 594 497 594 1153 
L 594 3053 
L 172 3053 
L 172 3500 
L 594 3500 
L 594 4494 
L 1172 4494 
z
" transform="scale(0.015625)"/>
      </defs>
      <use xlink:href="#DejaVuSans-53"/>
      <use xlink:href="#DejaVuSans-65" transform="translate(63.476562 0)"/>
      <use xlink:href="#DejaVuSans-73" transform="translate(125 0)"/>
      <use xlink:href="#DejaVuSans-73" transform="translate(177.099609 0)"/>
      <use xlink:href="#DejaVuSans-69" transform="translate(229.199219 0)"/>
      <use xlink:href="#DejaVuSans-6f" transform="translate(256.982422 0)"/>
      <use xlink:href="#DejaVuSans-6e" transform="translate(318.164062 0)"/>
      <use xlink:href="#DejaVuSans-20" transform="translate(381.542969 0)"/>
      <use xlink:href="#DejaVuSans-64" transform="translate(413.330078 0)"/>
      <use xlink:href="#DejaVuSans-61" transform="translate(476.806641 0)"/>
      <use xlink:href="#DejaVuSans-74" transform="translate(538.085938 0)"/>
      <use xlink:href="#DejaVuSans-65" transform="translate(577.294922 0)"/>
     </g>
    </g>
   </g>
   <g id="matplotlib.axis_2">
    <g id="ytick_1">
     <g id="line2d_7">
      <path d="M 81 377.856 
L 877.5 377.856 
" clip-path="url(#pfb37e2c7fc)" style="fill: none; stroke: #e5e7eb; stroke-width: 0.8; stroke-linecap: square"/>
     </g>
     <g id="line2d_8">
      <defs>
       <path id="me3adc3089e" d="M 0 0 
L -3.5 0 
" style="stroke: #000000; stroke-width: 0.8"/>
      </defs>
      <g>
       <use xlink:href="#me3adc3089e" x="81" y="377.856" style="stroke: #000000; stroke-width: 0.8"/>
      </g>
     </g>
     <g id="text_8">
      <!-- 0 -->
      <g transform="translate(67.6375 381.655219) scale(0.1 -0.1)">
       <defs>
        <path id="DejaVuSans-30" d="M 2034 4250 
Q 1547 4250 1301 3770 
Q 1056 3291 1056 2328 
Q 1056 1369 1301 889 
Q 1547 409 2034 409 
Q 2525 409 2770 889 
Q 3016 1369 3016 2328 
Q 3016 3291 2770 3770 
Q 2525 4250 2034 4250 
z
M 2034 4750 
Q 2819 4750 3233 4129 
Q 3647 3509 3647 2328 
Q 3647 1150 3233 529 
Q 2819 -91 2034 -91 
Q 1250 -91 836 529 
Q 422 1150 422 2328 
Q 422 3509 836 4129 
Q 1250 4750 2034 4750 
z
" transform="scale(0.015625)"/>
       </defs>
       <use xlink:href="#DejaVuSans-30"/>
      </g>
     </g>
    </g>
    <g id="ytick_2">
     <g id="line2d_9">
      <path d="M 81 344.652686 
L 877.5 344.652686 
" clip-path="url(#pfb37e2c7fc)" style="fill: none; stroke: #e5e7eb; stroke-width: 0.8; stroke-linecap: square"/>
     </g>
     <g id="line2d_10">
      <g>
       <use xlink:href="#me3adc3089e" x="81" y="344.652686" style="stroke: #000000; stroke-width: 0.8"/>
      </g>
     </g>
     <g id="text_9">
      <!-- 25 -->
      <g transform="translate(61.275 348.451905) scale(0.1 -0.1)">
       <defs>
        <path id="DejaVuSans-32" d="M 1228 531 
L 3431 531 
L 3431 0 
L 469 0 
L 469 531 
Q 828 903 1448 1529 
Q 2069 2156 2228 2338 
Q 2531 2678 2651 2914 
Q 2772 3150 2772 3378 
Q 2772 3750 2511 3984 
Q 2250 4219 1831 4219 
Q 1534 4219 1204 4116 
Q 875 4013 500 3803 
L 500 4441 
Q 881 4594 1212 4672 
Q 1544 4750 1819 4750 
Q 2544 4750 2975 4387 
Q 3406 4025 3406 3419 
Q 3406 3131 3298 2873 
Q 3191 2616 2906 2266 
Q 2828 2175 2409 1742 
Q 1991 1309 1228 531 
z
" transform="scale(0.015625)"/>
        <path id="DejaVuSans-35" d="M 691 4666 
L 3169 4666 
L 3169 4134 
L 1269 4134 
L 1269 2991 
Q 1406 3038 1543 3061 
Q 1681 3084 1819 3084 
Q 2600 3084 3056 2656 
Q 3513 2228 3513 1497 
Q 3513 744 3044 326 
Q 2575 -91 1722 -91 
Q 1428 -91 1123 -41 
Q 819 9 494 109 
L 494 744 
Q 775 591 1075 516 
Q 1375 441 1709 441 
Q 2250 441 2565 725 
Q 2881 1009 2881 1497 
Q 2881 1984 2565 2268 
Q 2250 2553 1709 2553 
Q 1456 2553 1204 2497 
Q 953 2441 691 2322 
L 691 4666 
z
" transform="scale(0.015625)"/>
       </defs>
       <use xlink:href="#DejaVuSans-32"/>
       <use xlink:href="#DejaVuSans-35" transform="translate(63.623047 0)"/>
      </g>
     </g>
    </g>
    <g id="ytick_3">
     <g id="line2d_11">
      <path d="M 81 311.449372 
L 877.5 311.449372 
" clip-path="url(#pfb37e2c7fc)" style="fill: none; stroke: #e5e7eb; stroke-width: 0.8; stroke-linecap: square"/>
     </g>
     <g id="line2d_12">
      <g>
       <use xlink:href="#me3adc3089e" x="81" y="311.449372" style="stroke: #000000; stroke-width: 0.8"/>
      </g>
     </g>
     <g id="text_10">
      <!-- 50 -->
      <g transform="translate(61.275 315.248591) scale(0.1 -0.1)">
       <use xlink:href="#DejaVuSans-35"/>
       <use xlink:href="#DejaVuSans-30" transform="translate(63.623047 0)"/>
      </g>
     </g>
    </g>
    <g id="ytick_4">
     <g id="line2d_13">
      <path d="M 81 278.246058 
L 877.5 278.246058 
" clip-path="url(#pfb37e2c7fc)" style="fill: none; stroke: #e5e7eb; stroke-width: 0.8; stroke-linecap: square"/>
     </g>
     <g id="line2d_14">
      <g>
       <use xlink:href="#me3adc3089e" x="81" y="278.246058" style="stroke: #000000; stroke-width: 0.8"/>
      </g>
     </g>
     <g id="text_11">
      <!-- 75 -->
      <g transform="translate(61.275 282.045277) scale(0.1 -0.1)">
       <defs>
        <path id="DejaVuSans-37" d="M 525 4666 
L 3525 4666 
L 3525 4397 
L 1831 0 
L 1172 0 
L 2766 4134 
L 525 4134 
L 525 4666 
z
" transform="scale(0.015625)"/>
       </defs>
       <use xlink:href="#DejaVuSans-37"/>
       <use xlink:href="#DejaVuSans-35" transform="translate(63.623047 0)"/>
      </g>
     </g>
    </g>
    <g id="ytick_5">
     <g id="line2d_15">
      <path d="M 81 245.042744 
L 877.5 245.042744 
" clip-path="url(#pfb37e2c7fc)" style="fill: none; stroke: #e5e7eb; stroke-width: 0.8; stroke-linecap: square"/>
     </g>
     <g id="line2d_16">
      <g>
       <use xlink:href="#me3adc3089e" x="81" y="245.042744" style="stroke: #000000; stroke-width: 0.8"/>
      </g>
     </g>
     <g id="text_12">
      <!-- 100 -->
      <g transform="translate(54.9125 248.841963) scale(0.1 -0.1)">
       <defs>
        <path id="DejaVuSans-31" d="M 794 531 
L 1825 531 
L 1825 4091 
L 703 3866 
L 703 4441 
L 1819 4666 
L 2450 4666 
L 2450 531 
L 3481 531 
L 3481 0 
L 794 0 
L 794 531 
z
" transform="scale(0.015625)"/>
       </defs>
       <use xlink:href="#DejaVuSans-31"/>
       <use xlink:href="#DejaVuSans-30" transform="translate(63.623047 0)"/>
       <use xlink:href="#DejaVuSans-30" transform="translate(127.246094 0)"/>
      </g>
     </g>
    </g>
    <g id="ytick_6">
     <g id="line2d_17">
      <path d="M 81 211.83943 
L 877.5 211.83943 
" clip-path="url(#pfb37e2c7fc)" style="fill: none; stroke: #e5e7eb; stroke-width: 0.8; stroke-linecap: square"/>
     </g>
     <g id="line2d_18">
      <g>
       <use xlink:href="#me3adc3089e" x="81" y="211.83943" style="stroke: #000000; stroke-width: 0.8"/>
      </g>
     </g>
     <g id="text_13">
      <!-- 125 -->
      <g transform="translate(54.9125 215.638649) scale(0.1 -0.1)">
       <use xlink:href="#DejaVuSans-31"/>
       <use xlink:href="#DejaVuSans-32" transform="translate(63.623047 0)"/>
       <use xlink:href="#DejaVuSans-35" transform="translate(127.246094 0)"/>
      </g>
     </g>
    </g>
    <g id="ytick_7">
     <g id="line2d_19">
      <path d="M 81 178.636116 
L 877.5 178.636116 
" clip-path="url(#pfb37e2c7fc)" style="fill: none; stroke: #e5e7eb; stroke-width: 0.8; stroke-linecap: square"/>
     </g>
     <g id="line2d_20">
      <g>
       <use xlink:href="#me3adc3089e" x="81" y="178.636116" style="stroke: #000000; stroke-width: 0.8"/>
      </g>
     </g>
     <g id="text_14">
      <!-- 150 -->
      <g transform="translate(54.9125 182.435335) scale(0.1 -0.1)">
       <use xlink:href="#DejaVuSans-31"/>
       <use xlink:href="#DejaVuSans-35" transform="translate(63.623047 0)"/>
       <use xlink:href="#DejaVuSans-30" transform="translate(127.246094 0)"/>
      </g>
     </g>
    </g>
    <g id="ytick_8">
     <g id="line2d_21">
      <path d="M 81 145.432802 
L 877.5 145.432802 
" clip-path="url(#pfb37e2c7fc)" style="fill: none; stroke: #e5e7eb; stroke-width: 0.8; stroke-linecap: square"/>
     </g>
     <g id="line2d_22">
      <g>
       <use xlink:href="#me3adc3089e" x="81" y="145.432802" style="stroke: #000000; stroke-width: 0.8"/>
      </g>
     </g>
     <g id="text_15">
      <!-- 175 -->
      <g transform="translate(54.9125 149.232021) scale(0.1 -0.1)">
       <use xlink:href="#DejaVuSans-31"/>
       <use xlink:href="#DejaVuSans-37" transform="translate(63.623047 0)"/>
       <use xlink:href="#DejaVuSans-35" transform="translate(127.246094 0)"/>
      </g>
     </g>
    </g>
    <g id="ytick_9">
     <g id="line2d_23">
      <path d="M 81 112.229488 
L 877.5 112.229488 
" clip-path="url(#pfb37e2c7fc)" style="fill: none; stroke: #e5e7eb; stroke-width: 0.8; stroke-linecap: square"/>
     </g>
     <g id="line2d_24">
      <g>
       <use xlink:href="#me3adc3089e" x="81" y="112.229488" style="stroke: #000000; stroke-width: 0.8"/>
      </g>
     </g>
     <g id="text_16">
      <!-- 200 -->
      <g transform="translate(54.9125 116.028707) scale(0.1 -0.1)">
       <use xlink:href="#DejaVuSans-32"/>
       <use xlink:href="#DejaVuSans-30" transform="translate(63.623047 0)"/>
       <use xlink:href="#DejaVuSans-30" transform="translate(127.246094 0)"/>
      </g>
     </g>
    </g>
    <g id="text_17">
     <!-- Active-tape stock-hours -->
     <g transform="translate(48.416875 313.037813) rotate(-90) scale(0.12 -0.12)">
      <defs>
       <path id="DejaVuSans-63" d="M 3122 3366 
L 3122 2828 
Q 2878 2963 2633 3030 
Q 2388 3097 2138 3097 
Q 1578 3097 1268 2742 
Q 959 2388 959 1747 
Q 959 1106 1268 751 
Q 1578 397 2138 397 
Q 2388 397 2633 464 
Q 2878 531 3122 666 
L 3122 134 
Q 2881 22 2623 -34 
Q 2366 -91 2075 -91 
Q 1284 -91 818 406 
Q 353 903 353 1747 
Q 353 2603 823 3093 
Q 1294 3584 2113 3584 
Q 2378 3584 2631 3529 
Q 2884 3475 3122 3366 
z
" transform="scale(0.015625)"/>
       <path id="DejaVuSans-76" d="M 191 3500 
L 800 3500 
L 1894 563 
L 2988 3500 
L 3597 3500 
L 2284 0 
L 1503 0 
L 191 3500 
z
" transform="scale(0.015625)"/>
       <path id="DejaVuSans-2d" d="M 313 2009 
L 1997 2009 
L 1997 1497 
L 313 1497 
L 313 2009 
z
" transform="scale(0.015625)"/>
       <path id="DejaVuSans-6b" d="M 581 4863 
L 1159 4863 
L 1159 1991 
L 2875 3500 
L 3609 3500 
L 1753 1863 
L 3688 0 
L 2938 0 
L 1159 1709 
L 1159 0 
L 581 0 
L 581 4863 
z
" transform="scale(0.015625)"/>
       <path id="DejaVuSans-68" d="M 3513 2113 
L 3513 0 
L 2938 0 
L 2938 2094 
Q 2938 2591 2744 2837 
Q 2550 3084 2163 3084 
Q 1697 3084 1428 2787 
Q 1159 2491 1159 1978 
L 1159 0 
L 581 0 
L 581 4863 
L 1159 4863 
L 1159 2956 
Q 1366 3272 1645 3428 
Q 1925 3584 2291 3584 
Q 2894 3584 3203 3211 
Q 3513 2838 3513 2113 
z
" transform="scale(0.015625)"/>
      </defs>
      <use xlink:href="#DejaVuSans-41"/>
      <use xlink:href="#DejaVuSans-63" transform="translate(66.658203 0)"/>
      <use xlink:href="#DejaVuSans-74" transform="translate(121.638672 0)"/>
      <use xlink:href="#DejaVuSans-69" transform="translate(160.847656 0)"/>
      <use xlink:href="#DejaVuSans-76" transform="translate(188.630859 0)"/>
      <use xlink:href="#DejaVuSans-65" transform="translate(247.810547 0)"/>
      <use xlink:href="#DejaVuSans-2d" transform="translate(309.333984 0)"/>
      <use xlink:href="#DejaVuSans-74" transform="translate(345.417969 0)"/>
      <use xlink:href="#DejaVuSans-61" transform="translate(384.626953 0)"/>
      <use xlink:href="#DejaVuSans-70" transform="translate(445.90625 0)"/>
      <use xlink:href="#DejaVuSans-65" transform="translate(509.382812 0)"/>
      <use xlink:href="#DejaVuSans-20" transform="translate(570.90625 0)"/>
      <use xlink:href="#DejaVuSans-73" transform="translate(602.693359 0)"/>
      <use xlink:href="#DejaVuSans-74" transform="translate(654.792969 0)"/>
      <use xlink:href="#DejaVuSans-6f" transform="translate(694.001953 0)"/>
      <use xlink:href="#DejaVuSans-63" transform="translate(755.183594 0)"/>
      <use xlink:href="#DejaVuSans-6b" transform="translate(810.164062 0)"/>
      <use xlink:href="#DejaVuSans-2d" transform="translate(868.074219 0)"/>
      <use xlink:href="#DejaVuSans-68" transform="translate(904.158203 0)"/>
      <use xlink:href="#DejaVuSans-6f" transform="translate(967.537109 0)"/>
      <use xlink:href="#DejaVuSans-75" transform="translate(1028.71875 0)"/>
      <use xlink:href="#DejaVuSans-72" transform="translate(1092.097656 0)"/>
      <use xlink:href="#DejaVuSans-73" transform="translate(1133.210938 0)"/>
     </g>
    </g>
   </g>
   <g id="patch_3">
    <path d="M 82.887132 377.856 
L 88.223162 377.856 
L 88.223162 205.990851 
L 82.887132 205.990851 
z
" clip-path="url(#pfb37e2c7fc)" style="fill: #786f91; stroke: #ffffff; stroke-width: 0.35; stroke-linejoin: miter"/>
   </g>
   <g id="patch_4">
    <path d="M 89.394485 377.856 
L 94.730515 377.856 
L 94.730515 241.331351 
L 89.394485 241.331351 
z
" clip-path="url(#pfb37e2c7fc)" style="fill: #786f91; stroke: #ffffff; stroke-width: 0.35; stroke-linejoin: miter"/>
   </g>
   <g id="patch_5">
    <path d="M 95.901838 377.856 
L 101.237868 377.856 
L 101.237868 265.38125 
L 95.901838 265.38125 
z
" clip-path="url(#pfb37e2c7fc)" style="fill: #786f91; stroke: #ffffff; stroke-width: 0.35; stroke-linejoin: miter"/>
   </g>
   <g id="patch_6">
    <path d="M 102.409191 377.856 
L 107.745221 377.856 
L 107.745221 265.245485 
L 102.409191 265.245485 
z
" clip-path="url(#pfb37e2c7fc)" style="fill: #786f91; stroke: #ffffff; stroke-width: 0.35; stroke-linejoin: miter"/>
   </g>
   <g id="patch_7">
    <path d="M 108.916544 377.856 
L 114.252574 377.856 
L 114.252574 292.823051 
L 108.916544 292.823051 
z
" clip-path="url(#pfb37e2c7fc)" style="fill: #786f91; stroke: #ffffff; stroke-width: 0.35; stroke-linejoin: miter"/>
   </g>
   <g id="patch_8">
    <path d="M 115.423897 377.856 
L 120.759926 377.856 
L 120.759926 300.919125 
L 115.423897 300.919125 
z
" clip-path="url(#pfb37e2c7fc)" style="fill: #786f91; stroke: #ffffff; stroke-width: 0.35; stroke-linejoin: miter"/>
   </g>
   <g id="patch_9">
    <path d="M 121.93125 377.856 
L 127.267279 377.856 
L 127.267279 289.775355 
L 121.93125 289.775355 
z
" clip-path="url(#pfb37e2c7fc)" style="fill: #786f91; stroke: #ffffff; stroke-width: 0.35; stroke-linejoin: miter"/>
   </g>
   <g id="patch_10">
    <path d="M 128.438603 377.856 
L 133.774632 377.856 
L 133.774632 298.144435 
L 128.438603 298.144435 
z
" clip-path="url(#pfb37e2c7fc)" style="fill: #786f91; stroke: #ffffff; stroke-width: 0.35; stroke-linejoin: miter"/>
   </g>
   <g id="patch_11">
    <path d="M 134.945956 377.856 
L 140.281985 377.856 
L 140.281985 275.362904 
L 134.945956 275.362904 
z
" clip-path="url(#pfb37e2c7fc)" style="fill: #786f91; stroke: #ffffff; stroke-width: 0.35; stroke-linejoin: miter"/>
   </g>
   <g id="patch_12">
    <path d="M 141.453309 377.856 
L 146.789338 377.856 
L 146.789338 307.940151 
L 141.453309 307.940151 
z
" clip-path="url(#pfb37e2c7fc)" style="fill: #786f91; stroke: #ffffff; stroke-width: 0.35; stroke-linejoin: miter"/>
   </g>
   <g id="patch_13">
    <path d="M 147.960662 377.856 
L 153.296691 377.856 
L 153.296691 118.930286 
L 147.960662 118.930286 
z
" clip-path="url(#pfb37e2c7fc)" style="fill: #786f91; stroke: #ffffff; stroke-width: 0.35; stroke-linejoin: miter"/>
   </g>
   <g id="patch_14">
    <path d="M 154.468015 377.856 
L 159.804044 377.856 
L 159.804044 302.20889 
L 154.468015 302.20889 
z
" clip-path="url(#pfb37e2c7fc)" style="fill: #786f91; stroke: #ffffff; stroke-width: 0.35; stroke-linejoin: miter"/>
   </g>
   <g id="patch_15">
    <path d="M 160.975368 377.856 
L 166.311397 377.856 
L 166.311397 289.484642 
L 160.975368 289.484642 
z
" clip-path="url(#pfb37e2c7fc)" style="fill: #786f91; stroke: #ffffff; stroke-width: 0.35; stroke-linejoin: miter"/>
   </g>
   <g id="patch_16">
    <path d="M 167.482721 377.856 
L 172.81875 377.856 
L 172.81875 314.006765 
L 167.482721 314.006765 
z
" clip-path="url(#pfb37e2c7fc)" style="fill: #786f91; stroke: #ffffff; stroke-width: 0.35; stroke-linejoin: miter"/>
   </g>
   <g id="patch_17">
    <path d="M 173.990074 377.856 
L 179.326103 377.856 
L 179.326103 286.944957 
L 173.990074 286.944957 
z
" clip-path="url(#pfb37e2c7fc)" style="fill: #786f91; stroke: #ffffff; stroke-width: 0.35; stroke-linejoin: miter"/>
   </g>
   <g id="patch_18">
    <path d="M 180.497426 377.856 
L 185.833456 377.856 
L 185.833456 288.961874 
L 180.497426 288.961874 
z
" clip-path="url(#pfb37e2c7fc)" style="fill: #786f91; stroke: #ffffff; stroke-width: 0.35; stroke-linejoin: miter"/>
   </g>
   <g id="patch_19">
    <path d="M 187.004779 377.856 
L 192.340809 377.856 
L 192.340809 279.803293 
L 187.004779 279.803293 
z
" clip-path="url(#pfb37e2c7fc)" style="fill: #786f91; stroke: #ffffff; stroke-width: 0.35; stroke-linejoin: miter"/>
   </g>
   <g id="patch_20">
    <path d="M 193.512132 377.856 
L 198.848162 377.856 
L 198.848162 315.875374 
L 193.512132 315.875374 
z
" clip-path="url(#pfb37e2c7fc)" style="fill: #786f91; stroke: #ffffff; stroke-width: 0.35; stroke-linejoin: miter"/>
   </g>
   <g id="patch_21">
    <path d="M 200.019485 377.856 
L 205.355515 377.856 
L 205.355515 265.124846 
L 200.019485 265.124846 
z
" clip-path="url(#pfb37e2c7fc)" style="fill: #786f91; stroke: #ffffff; stroke-width: 0.35; stroke-linejoin: miter"/>
   </g>
   <g id="patch_22">
    <path d="M 206.526838 377.856 
L 211.862868 377.856 
L 211.862868 275.767615 
L 206.526838 275.767615 
z
" clip-path="url(#pfb37e2c7fc)" style="fill: #786f91; stroke: #ffffff; stroke-width: 0.35; stroke-linejoin: miter"/>
   </g>
   <g id="patch_23">
    <path d="M 213.034191 377.856 
L 218.370221 377.856 
L 218.370221 280.657725 
L 213.034191 280.657725 
z
" clip-path="url(#pfb37e2c7fc)" style="fill: #786f91; stroke: #ffffff; stroke-width: 0.35; stroke-linejoin: miter"/>
   </g>
   <g id="patch_24">
    <path d="M 219.541544 377.856 
L 224.877574 377.856 
L 224.877574 267.280848 
L 219.541544 267.280848 
z
" clip-path="url(#pfb37e2c7fc)" style="fill: #786f91; stroke: #ffffff; stroke-width: 0.35; stroke-linejoin: miter"/>
   </g>
   <g id="patch_25">
    <path d="M 226.048897 377.856 
L 231.384926 377.856 
L 231.384926 236.1841 
L 226.048897 236.1841 
z
" clip-path="url(#pfb37e2c7fc)" style="fill: #786f91; stroke: #ffffff; stroke-width: 0.35; stroke-linejoin: miter"/>
   </g>
   <g id="patch_26">
    <path d="M 232.55625 377.856 
L 237.892279 377.856 
L 237.892279 246.03663 
L 232.55625 246.03663 
z
" clip-path="url(#pfb37e2c7fc)" style="fill: #786f91; stroke: #ffffff; stroke-width: 0.35; stroke-linejoin: miter"/>
   </g>
   <g id="patch_27">
    <path d="M 239.063603 377.856 
L 244.399632 377.856 
L 244.399632 277.009788 
L 239.063603 277.009788 
z
" clip-path="url(#pfb37e2c7fc)" style="fill: #786f91; stroke: #ffffff; stroke-width: 0.35; stroke-linejoin: miter"/>
   </g>
   <g id="patch_28">
    <path d="M 245.570956 377.856 
L 250.906985 377.856 
L 250.906985 277.718125 
L 245.570956 277.718125 
z
" clip-path="url(#pfb37e2c7fc)" style="fill: #786f91; stroke: #ffffff; stroke-width: 0.35; stroke-linejoin: miter"/>
   </g>
   <g id="patch_29">
    <path d="M 252.078309 377.856 
L 257.414338 377.856 
L 257.414338 264.03836 
L 252.078309 264.03836 
z
" clip-path="url(#pfb37e2c7fc)" style="fill: #786f91; stroke: #ffffff; stroke-width: 0.35; stroke-linejoin: miter"/>
   </g>
   <g id="patch_30">
    <path d="M 258.585662 377.856 
L 263.921691 377.856 
L 263.921691 264.15162 
L 258.585662 264.15162 
z
" clip-path="url(#pfb37e2c7fc)" style="fill: #786f91; stroke: #ffffff; stroke-width: 0.35; stroke-linejoin: miter"/>
   </g>
   <g id="patch_31">
    <path d="M 265.093015 377.856 
L 270.429044 377.856 
L 270.429044 273.453344 
L 265.093015 273.453344 
z
" clip-path="url(#pfb37e2c7fc)" style="fill: #786f91; stroke: #ffffff; stroke-width: 0.35; stroke-linejoin: miter"/>
   </g>
   <g id="patch_32">
    <path d="M 271.600368 377.856 
L 276.936397 377.856 
L 276.936397 254.936594 
L 271.600368 254.936594 
z
" clip-path="url(#pfb37e2c7fc)" style="fill: #786f91; stroke: #ffffff; stroke-width: 0.35; stroke-linejoin: miter"/>
   </g>
   <g id="patch_33">
    <path d="M 278.107721 377.856 
L 283.44375 377.856 
L 283.44375 257.034305 
L 278.107721 257.034305 
z
" clip-path="url(#pfb37e2c7fc)" style="fill: #786f91; stroke: #ffffff; stroke-width: 0.35; stroke-linejoin: miter"/>
   </g>
   <g id="patch_34">
    <path d="M 284.615074 377.856 
L 289.951103 377.856 
L 289.951103 244.809952 
L 284.615074 244.809952 
z
" clip-path="url(#pfb37e2c7fc)" style="fill: #786f91; stroke: #ffffff; stroke-width: 0.35; stroke-linejoin: miter"/>
   </g>
   <g id="patch_35">
    <path d="M 291.122426 377.856 
L 296.458456 377.856 
L 296.458456 242.8635 
L 291.122426 242.8635 
z
" clip-path="url(#pfb37e2c7fc)" style="fill: #786f91; stroke: #ffffff; stroke-width: 0.35; stroke-linejoin: miter"/>
   </g>
   <g id="patch_36">
    <path d="M 297.629779 377.856 
L 302.965809 377.856 
L 302.965809 281.713222 
L 297.629779 281.713222 
z
" clip-path="url(#pfb37e2c7fc)" style="fill: #786f91; stroke: #ffffff; stroke-width: 0.35; stroke-linejoin: miter"/>
   </g>
   <g id="patch_37">
    <path d="M 304.137132 377.856 
L 309.473162 377.856 
L 309.473162 261.344095 
L 304.137132 261.344095 
z
" clip-path="url(#pfb37e2c7fc)" style="fill: #786f91; stroke: #ffffff; stroke-width: 0.35; stroke-linejoin: miter"/>
   </g>
   <g id="patch_38">
    <path d="M 310.644485 377.856 
L 315.980515 377.856 
L 315.980515 263.49567 
L 310.644485 263.49567 
z
" clip-path="url(#pfb37e2c7fc)" style="fill: #786f91; stroke: #ffffff; stroke-width: 0.35; stroke-linejoin: miter"/>
   </g>
   <g id="patch_39">
    <path d="M 317.151838 377.856 
L 322.487868 377.856 
L 322.487868 263.777161 
L 317.151838 263.777161 
z
" clip-path="url(#pfb37e2c7fc)" style="fill: #786f91; stroke: #ffffff; stroke-width: 0.35; stroke-linejoin: miter"/>
   </g>
   <g id="patch_40">
    <path d="M 323.659191 377.856 
L 328.995221 377.856 
L 328.995221 267.481913 
L 323.659191 267.481913 
z
" clip-path="url(#pfb37e2c7fc)" style="fill: #786f91; stroke: #ffffff; stroke-width: 0.35; stroke-linejoin: miter"/>
   </g>
   <g id="patch_41">
    <path d="M 330.166544 377.856 
L 335.502574 377.856 
L 335.502574 293.908799 
L 330.166544 293.908799 
z
" clip-path="url(#pfb37e2c7fc)" style="fill: #786f91; stroke: #ffffff; stroke-width: 0.35; stroke-linejoin: miter"/>
   </g>
   <g id="patch_42">
    <path d="M 336.673897 377.856 
L 342.009926 377.856 
L 342.009926 277.39015 
L 336.673897 277.39015 
z
" clip-path="url(#pfb37e2c7fc)" style="fill: #786f91; stroke: #ffffff; stroke-width: 0.35; stroke-linejoin: miter"/>
   </g>
   <g id="patch_43">
    <path d="M 343.18125 377.856 
L 348.517279 377.856 
L 348.517279 216.76053 
L 343.18125 216.76053 
z
" clip-path="url(#pfb37e2c7fc)" style="fill: #786f91; stroke: #ffffff; stroke-width: 0.35; stroke-linejoin: miter"/>
   </g>
   <g id="patch_44">
    <path d="M 349.688603 377.856 
L 355.024632 377.856 
L 355.024632 224.166714 
L 349.688603 224.166714 
z
" clip-path="url(#pfb37e2c7fc)" style="fill: #786f91; stroke: #ffffff; stroke-width: 0.35; stroke-linejoin: miter"/>
   </g>
   <g id="patch_45">
    <path d="M 356.195956 377.856 
L 361.531985 377.856 
L 361.531985 208.601738 
L 356.195956 208.601738 
z
" clip-path="url(#pfb37e2c7fc)" style="fill: #786f91; stroke: #ffffff; stroke-width: 0.35; stroke-linejoin: miter"/>
   </g>
   <g id="patch_46">
    <path d="M 362.703309 377.856 
L 368.039338 377.856 
L 368.039338 292.251585 
L 362.703309 292.251585 
z
" clip-path="url(#pfb37e2c7fc)" style="fill: #786f91; stroke: #ffffff; stroke-width: 0.35; stroke-linejoin: miter"/>
   </g>
   <g id="patch_47">
    <path d="M 369.210662 377.856 
L 374.546691 377.856 
L 374.546691 186.987487 
L 369.210662 186.987487 
z
" clip-path="url(#pfb37e2c7fc)" style="fill: #786f91; stroke: #ffffff; stroke-width: 0.35; stroke-linejoin: miter"/>
   </g>
   <g id="patch_48">
    <path d="M 375.718015 377.856 
L 381.054044 377.856 
L 381.054044 260.359064 
L 375.718015 260.359064 
z
" clip-path="url(#pfb37e2c7fc)" style="fill: #786f91; stroke: #ffffff; stroke-width: 0.35; stroke-linejoin: miter"/>
   </g>
   <g id="patch_49">
    <path d="M 382.225368 377.856 
L 387.561397 377.856 
L 387.561397 254.226412 
L 382.225368 254.226412 
z
" clip-path="url(#pfb37e2c7fc)" style="fill: #786f91; stroke: #ffffff; stroke-width: 0.35; stroke-linejoin: miter"/>
   </g>
   <g id="patch_50">
    <path d="M 388.732721 377.856 
L 394.06875 377.856 
L 394.06875 240.29135 
L 388.732721 240.29135 
z
" clip-path="url(#pfb37e2c7fc)" style="fill: #786f91; stroke: #ffffff; stroke-width: 0.35; stroke-linejoin: miter"/>
   </g>
   <g id="patch_51">
    <path d="M 395.240074 377.856 
L 400.576103 377.856 
L 400.576103 226.373627 
L 395.240074 226.373627 
z
" clip-path="url(#pfb37e2c7fc)" style="fill: #786f91; stroke: #ffffff; stroke-width: 0.35; stroke-linejoin: miter"/>
   </g>
   <g id="patch_52">
    <path d="M 401.747426 377.856 
L 407.083456 377.856 
L 407.083456 246.857859 
L 401.747426 246.857859 
z
" clip-path="url(#pfb37e2c7fc)" style="fill: #786f91; stroke: #ffffff; stroke-width: 0.35; stroke-linejoin: miter"/>
   </g>
   <g id="patch_53">
    <path d="M 408.254779 377.856 
L 413.590809 377.856 
L 413.590809 254.517494 
L 408.254779 254.517494 
z
" clip-path="url(#pfb37e2c7fc)" style="fill: #786f91; stroke: #ffffff; stroke-width: 0.35; stroke-linejoin: miter"/>
   </g>
   <g id="patch_54">
    <path d="M 414.762132 377.856 
L 420.098162 377.856 
L 420.098162 230.183523 
L 414.762132 230.183523 
z
" clip-path="url(#pfb37e2c7fc)" style="fill: #786f91; stroke: #ffffff; stroke-width: 0.35; stroke-linejoin: miter"/>
   </g>
   <g id="patch_55">
    <path d="M 421.269485 377.856 
L 426.605515 377.856 
L 426.605515 221.841006 
L 421.269485 221.841006 
z
" clip-path="url(#pfb37e2c7fc)" style="fill: #786f91; stroke: #ffffff; stroke-width: 0.35; stroke-linejoin: miter"/>
   </g>
   <g id="patch_56">
    <path d="M 427.776838 377.856 
L 433.112868 377.856 
L 433.112868 261.34262 
L 427.776838 261.34262 
z
" clip-path="url(#pfb37e2c7fc)" style="fill: #786f91; stroke: #ffffff; stroke-width: 0.35; stroke-linejoin: miter"/>
   </g>
   <g id="patch_57">
    <path d="M 434.284191 377.856 
L 439.620221 377.856 
L 439.620221 177.997137 
L 434.284191 177.997137 
z
" clip-path="url(#pfb37e2c7fc)" style="fill: #786f91; stroke: #ffffff; stroke-width: 0.35; stroke-linejoin: miter"/>
   </g>
   <g id="patch_58">
    <path d="M 440.791544 377.856 
L 446.127574 377.856 
L 446.127574 169.791122 
L 440.791544 169.791122 
z
" clip-path="url(#pfb37e2c7fc)" style="fill: #786f91; stroke: #ffffff; stroke-width: 0.35; stroke-linejoin: miter"/>
   </g>
   <g id="patch_59">
    <path d="M 447.298897 377.856 
L 452.634926 377.856 
L 452.634926 201.878805 
L 447.298897 201.878805 
z
" clip-path="url(#pfb37e2c7fc)" style="fill: #786f91; stroke: #ffffff; stroke-width: 0.35; stroke-linejoin: miter"/>
   </g>
   <g id="patch_60">
    <path d="M 453.80625 377.856 
L 459.142279 377.856 
L 459.142279 225.538748 
L 453.80625 225.538748 
z
" clip-path="url(#pfb37e2c7fc)" style="fill: #786f91; stroke: #ffffff; stroke-width: 0.35; stroke-linejoin: miter"/>
   </g>
   <g id="patch_61">
    <path d="M 460.313603 377.856 
L 465.649632 377.856 
L 465.649632 207.988215 
L 460.313603 207.988215 
z
" clip-path="url(#pfb37e2c7fc)" style="fill: #786f91; stroke: #ffffff; stroke-width: 0.35; stroke-linejoin: miter"/>
   </g>
   <g id="patch_62">
    <path d="M 466.820956 377.856 
L 472.156985 377.856 
L 472.156985 159.733838 
L 466.820956 159.733838 
z
" clip-path="url(#pfb37e2c7fc)" style="fill: #786f91; stroke: #ffffff; stroke-width: 0.35; stroke-linejoin: miter"/>
   </g>
   <g id="patch_63">
    <path d="M 473.328309 377.856 
L 478.664338 377.856 
L 478.664338 187.581089 
L 473.328309 187.581089 
z
" clip-path="url(#pfb37e2c7fc)" style="fill: #786f91; stroke: #ffffff; stroke-width: 0.35; stroke-linejoin: miter"/>
   </g>
   <g id="patch_64">
    <path d="M 479.835662 377.856 
L 485.171691 377.856 
L 485.171691 222.122865 
L 479.835662 222.122865 
z
" clip-path="url(#pfb37e2c7fc)" style="fill: #786f91; stroke: #ffffff; stroke-width: 0.35; stroke-linejoin: miter"/>
   </g>
   <g id="patch_65">
    <path d="M 486.343015 377.856 
L 491.679044 377.856 
L 491.679044 208.231705 
L 486.343015 208.231705 
z
" clip-path="url(#pfb37e2c7fc)" style="fill: #786f91; stroke: #ffffff; stroke-width: 0.35; stroke-linejoin: miter"/>
   </g>
   <g id="patch_66">
    <path d="M 492.850368 377.856 
L 498.186397 377.856 
L 498.186397 251.142193 
L 492.850368 251.142193 
z
" clip-path="url(#pfb37e2c7fc)" style="fill: #786f91; stroke: #ffffff; stroke-width: 0.35; stroke-linejoin: miter"/>
   </g>
   <g id="patch_67">
    <path d="M 499.357721 377.856 
L 504.69375 377.856 
L 504.69375 239.657535 
L 499.357721 239.657535 
z
" clip-path="url(#pfb37e2c7fc)" style="fill: #786f91; stroke: #ffffff; stroke-width: 0.35; stroke-linejoin: miter"/>
   </g>
   <g id="patch_68">
    <path d="M 505.865074 377.856 
L 511.201103 377.856 
L 511.201103 234.035845 
L 505.865074 234.035845 
z
" clip-path="url(#pfb37e2c7fc)" style="fill: #786f91; stroke: #ffffff; stroke-width: 0.35; stroke-linejoin: miter"/>
   </g>
   <g id="patch_69">
    <path d="M 512.372426 377.856 
L 517.708456 377.856 
L 517.708456 225.194541 
L 512.372426 225.194541 
z
" clip-path="url(#pfb37e2c7fc)" style="fill: #786f91; stroke: #ffffff; stroke-width: 0.35; stroke-linejoin: miter"/>
   </g>
   <g id="patch_70">
    <path d="M 518.879779 377.856 
L 524.215809 377.856 
L 524.215809 265.5528 
L 518.879779 265.5528 
z
" clip-path="url(#pfb37e2c7fc)" style="fill: #786f91; stroke: #ffffff; stroke-width: 0.35; stroke-linejoin: miter"/>
   </g>
   <g id="patch_71">
    <path d="M 525.387132 377.856 
L 530.723162 377.856 
L 530.723162 193.398309 
L 525.387132 193.398309 
z
" clip-path="url(#pfb37e2c7fc)" style="fill: #786f91; stroke: #ffffff; stroke-width: 0.35; stroke-linejoin: miter"/>
   </g>
   <g id="patch_72">
    <path d="M 531.894485 377.856 
L 537.230515 377.856 
L 537.230515 197.070965 
L 531.894485 197.070965 
z
" clip-path="url(#pfb37e2c7fc)" style="fill: #786f91; stroke: #ffffff; stroke-width: 0.35; stroke-linejoin: miter"/>
   </g>
   <g id="patch_73">
    <path d="M 538.401838 377.856 
L 543.737868 377.856 
L 543.737868 210.12245 
L 538.401838 210.12245 
z
" clip-path="url(#pfb37e2c7fc)" style="fill: #786f91; stroke: #ffffff; stroke-width: 0.35; stroke-linejoin: miter"/>
   </g>
   <g id="patch_74">
    <path d="M 544.909191 377.856 
L 550.245221 377.856 
L 550.245221 227.701022 
L 544.909191 227.701022 
z
" clip-path="url(#pfb37e2c7fc)" style="fill: #786f91; stroke: #ffffff; stroke-width: 0.35; stroke-linejoin: miter"/>
   </g>
   <g id="patch_75">
    <path d="M 551.416544 377.856 
L 556.752574 377.856 
L 556.752574 210.676945 
L 551.416544 210.676945 
z
" clip-path="url(#pfb37e2c7fc)" style="fill: #786f91; stroke: #ffffff; stroke-width: 0.35; stroke-linejoin: miter"/>
   </g>
   <g id="patch_76">
    <path d="M 557.923897 377.856 
L 563.259926 377.856 
L 563.259926 186.837335 
L 557.923897 186.837335 
z
" clip-path="url(#pfb37e2c7fc)" style="fill: #786f91; stroke: #ffffff; stroke-width: 0.35; stroke-linejoin: miter"/>
   </g>
   <g id="patch_77">
    <path d="M 564.43125 377.856 
L 569.767279 377.856 
L 569.767279 230.876735 
L 564.43125 230.876735 
z
" clip-path="url(#pfb37e2c7fc)" style="fill: #786f91; stroke: #ffffff; stroke-width: 0.35; stroke-linejoin: miter"/>
   </g>
   <g id="patch_78">
    <path d="M 570.938603 377.856 
L 576.274632 377.856 
L 576.274632 261.827388 
L 570.938603 261.827388 
z
" clip-path="url(#pfb37e2c7fc)" style="fill: #786f91; stroke: #ffffff; stroke-width: 0.35; stroke-linejoin: miter"/>
   </g>
   <g id="patch_79">
    <path d="M 577.445956 377.856 
L 582.781985 377.856 
L 582.781985 279.514425 
L 577.445956 279.514425 
z
" clip-path="url(#pfb37e2c7fc)" style="fill: #786f91; stroke: #ffffff; stroke-width: 0.35; stroke-linejoin: miter"/>
   </g>
   <g id="patch_80">
    <path d="M 583.953309 377.856 
L 589.289338 377.856 
L 589.289338 255.708755 
L 583.953309 255.708755 
z
" clip-path="url(#pfb37e2c7fc)" style="fill: #786f91; stroke: #ffffff; stroke-width: 0.35; stroke-linejoin: miter"/>
   </g>
   <g id="patch_81">
    <path d="M 590.460662 377.856 
L 595.796691 377.856 
L 595.796691 208.2199 
L 590.460662 208.2199 
z
" clip-path="url(#pfb37e2c7fc)" style="fill: #786f91; stroke: #ffffff; stroke-width: 0.35; stroke-linejoin: miter"/>
   </g>
   <g id="patch_82">
    <path d="M 596.968015 377.856 
L 602.304044 377.856 
L 602.304044 251.535837 
L 596.968015 251.535837 
z
" clip-path="url(#pfb37e2c7fc)" style="fill: #786f91; stroke: #ffffff; stroke-width: 0.35; stroke-linejoin: miter"/>
   </g>
   <g id="patch_83">
    <path d="M 603.475368 377.856 
L 608.811397 377.856 
L 608.811397 253.376776 
L 603.475368 253.376776 
z
" clip-path="url(#pfb37e2c7fc)" style="fill: #786f91; stroke: #ffffff; stroke-width: 0.35; stroke-linejoin: miter"/>
   </g>
   <g id="patch_84">
    <path d="M 609.982721 377.856 
L 615.31875 377.856 
L 615.31875 268.523759 
L 609.982721 268.523759 
z
" clip-path="url(#pfb37e2c7fc)" style="fill: #786f91; stroke: #ffffff; stroke-width: 0.35; stroke-linejoin: miter"/>
   </g>
   <g id="patch_85">
    <path d="M 616.490074 377.856 
L 621.826103 377.856 
L 621.826103 275.988602 
L 616.490074 275.988602 
z
" clip-path="url(#pfb37e2c7fc)" style="fill: #786f91; stroke: #ffffff; stroke-width: 0.35; stroke-linejoin: miter"/>
   </g>
   <g id="patch_86">
    <path d="M 622.997426 377.856 
L 628.333456 377.856 
L 628.333456 285.749269 
L 622.997426 285.749269 
z
" clip-path="url(#pfb37e2c7fc)" style="fill: #786f91; stroke: #ffffff; stroke-width: 0.35; stroke-linejoin: miter"/>
   </g>
   <g id="patch_87">
    <path d="M 629.504779 377.856 
L 634.840809 377.856 
L 634.840809 271.915293 
L 629.504779 271.915293 
z
" clip-path="url(#pfb37e2c7fc)" style="fill: #786f91; stroke: #ffffff; stroke-width: 0.35; stroke-linejoin: miter"/>
   </g>
   <g id="patch_88">
    <path d="M 636.012132 377.856 
L 641.348162 377.856 
L 641.348162 288.274935 
L 636.012132 288.274935 
z
" clip-path="url(#pfb37e2c7fc)" style="fill: #786f91; stroke: #ffffff; stroke-width: 0.35; stroke-linejoin: miter"/>
   </g>
   <g id="patch_89">
    <path d="M 642.519485 377.856 
L 647.855515 377.856 
L 647.855515 245.941816 
L 642.519485 245.941816 
z
" clip-path="url(#pfb37e2c7fc)" style="fill: #786f91; stroke: #ffffff; stroke-width: 0.35; stroke-linejoin: miter"/>
   </g>
   <g id="patch_90">
    <path d="M 649.026838 377.856 
L 654.362868 377.856 
L 654.362868 256.250707 
L 649.026838 256.250707 
z
" clip-path="url(#pfb37e2c7fc)" style="fill: #786f91; stroke: #ffffff; stroke-width: 0.35; stroke-linejoin: miter"/>
   </g>
   <g id="patch_91">
    <path d="M 655.534191 377.856 
L 660.870221 377.856 
L 660.870221 277.753911 
L 655.534191 277.753911 
z
" clip-path="url(#pfb37e2c7fc)" style="fill: #786f91; stroke: #ffffff; stroke-width: 0.35; stroke-linejoin: miter"/>
   </g>
   <g id="patch_92">
    <path d="M 662.041544 377.856 
L 667.377574 377.856 
L 667.377574 265.571246 
L 662.041544 265.571246 
z
" clip-path="url(#pfb37e2c7fc)" style="fill: #786f91; stroke: #ffffff; stroke-width: 0.35; stroke-linejoin: miter"/>
   </g>
   <g id="patch_93">
    <path d="M 668.548897 377.856 
L 673.884926 377.856 
L 673.884926 317.563578 
L 668.548897 317.563578 
z
" clip-path="url(#pfb37e2c7fc)" style="fill: #786f91; stroke: #ffffff; stroke-width: 0.35; stroke-linejoin: miter"/>
   </g>
   <g id="patch_94">
    <path d="M 675.05625 377.856 
L 680.392279 377.856 
L 680.392279 284.066968 
L 675.05625 284.066968 
z
" clip-path="url(#pfb37e2c7fc)" style="fill: #786f91; stroke: #ffffff; stroke-width: 0.35; stroke-linejoin: miter"/>
   </g>
   <g id="patch_95">
    <path d="M 681.563603 377.856 
L 686.899632 377.856 
L 686.899632 294.754746 
L 681.563603 294.754746 
z
" clip-path="url(#pfb37e2c7fc)" style="fill: #786f91; stroke: #ffffff; stroke-width: 0.35; stroke-linejoin: miter"/>
   </g>
   <g id="patch_96">
    <path d="M 688.070956 377.856 
L 693.406985 377.856 
L 693.406985 263.915139 
L 688.070956 263.915139 
z
" clip-path="url(#pfb37e2c7fc)" style="fill: #786f91; stroke: #ffffff; stroke-width: 0.35; stroke-linejoin: miter"/>
   </g>
   <g id="patch_97">
    <path d="M 694.578309 377.856 
L 699.914338 377.856 
L 699.914338 298.899257 
L 694.578309 298.899257 
z
" clip-path="url(#pfb37e2c7fc)" style="fill: #786f91; stroke: #ffffff; stroke-width: 0.35; stroke-linejoin: miter"/>
   </g>
   <g id="patch_98">
    <path d="M 701.085662 377.856 
L 706.421691 377.856 
L 706.421691 287.704575 
L 701.085662 287.704575 
z
" clip-path="url(#pfb37e2c7fc)" style="fill: #786f91; stroke: #ffffff; stroke-width: 0.35; stroke-linejoin: miter"/>
   </g>
   <g id="patch_99">
    <path d="M 707.593015 377.856 
L 712.929044 377.856 
L 712.929044 249.199061 
L 707.593015 249.199061 
z
" clip-path="url(#pfb37e2c7fc)" style="fill: #786f91; stroke: #ffffff; stroke-width: 0.35; stroke-linejoin: miter"/>
   </g>
   <g id="patch_100">
    <path d="M 714.100368 377.856 
L 719.436397 377.856 
L 719.436397 253.535045 
L 714.100368 253.535045 
z
" clip-path="url(#pfb37e2c7fc)" style="fill: #786f91; stroke: #ffffff; stroke-width: 0.35; stroke-linejoin: miter"/>
   </g>
   <g id="patch_101">
    <path d="M 720.607721 377.856 
L 725.94375 377.856 
L 725.94375 244.662013 
L 720.607721 244.662013 
z
" clip-path="url(#pfb37e2c7fc)" style="fill: #786f91; stroke: #ffffff; stroke-width: 0.35; stroke-linejoin: miter"/>
   </g>
   <g id="patch_102">
    <path d="M 727.115074 377.856 
L 732.451103 377.856 
L 732.451103 249.370243 
L 727.115074 249.370243 
z
" clip-path="url(#pfb37e2c7fc)" style="fill: #786f91; stroke: #ffffff; stroke-width: 0.35; stroke-linejoin: miter"/>
   </g>
   <g id="patch_103">
    <path d="M 733.622426 377.856 
L 738.958456 377.856 
L 738.958456 212.324567 
L 733.622426 212.324567 
z
" clip-path="url(#pfb37e2c7fc)" style="fill: #786f91; stroke: #ffffff; stroke-width: 0.35; stroke-linejoin: miter"/>
   </g>
   <g id="patch_104">
    <path d="M 740.129779 377.856 
L 745.465809 377.856 
L 745.465809 203.550407 
L 740.129779 203.550407 
z
" clip-path="url(#pfb37e2c7fc)" style="fill: #786f91; stroke: #ffffff; stroke-width: 0.35; stroke-linejoin: miter"/>
   </g>
   <g id="patch_105">
    <path d="M 746.637132 377.856 
L 751.973162 377.856 
L 751.973162 183.654612 
L 746.637132 183.654612 
z
" clip-path="url(#pfb37e2c7fc)" style="fill: #786f91; stroke: #ffffff; stroke-width: 0.35; stroke-linejoin: miter"/>
   </g>
   <g id="patch_106">
    <path d="M 753.144485 377.856 
L 758.480515 377.856 
L 758.480515 128.284397 
L 753.144485 128.284397 
z
" clip-path="url(#pfb37e2c7fc)" style="fill: #786f91; stroke: #ffffff; stroke-width: 0.35; stroke-linejoin: miter"/>
   </g>
   <g id="patch_107">
    <path d="M 759.651838 377.856 
L 764.987868 377.856 
L 764.987868 135.568835 
L 759.651838 135.568835 
z
" clip-path="url(#pfb37e2c7fc)" style="fill: #786f91; stroke: #ffffff; stroke-width: 0.35; stroke-linejoin: miter"/>
   </g>
   <g id="patch_108">
    <path d="M 766.159191 377.856 
L 771.495221 377.856 
L 771.495221 213.653438 
L 766.159191 213.653438 
z
" clip-path="url(#pfb37e2c7fc)" style="fill: #786f91; stroke: #ffffff; stroke-width: 0.35; stroke-linejoin: miter"/>
   </g>
   <g id="patch_109">
    <path d="M 772.666544 377.856 
L 778.002574 377.856 
L 778.002574 162.014537 
L 772.666544 162.014537 
z
" clip-path="url(#pfb37e2c7fc)" style="fill: #786f91; stroke: #ffffff; stroke-width: 0.35; stroke-linejoin: miter"/>
   </g>
   <g id="patch_110">
    <path d="M 779.173897 377.856 
L 784.509926 377.856 
L 784.509926 179.404957 
L 779.173897 179.404957 
z
" clip-path="url(#pfb37e2c7fc)" style="fill: #786f91; stroke: #ffffff; stroke-width: 0.35; stroke-linejoin: miter"/>
   </g>
   <g id="patch_111">
    <path d="M 785.68125 377.856 
L 791.017279 377.856 
L 791.017279 241.988777 
L 785.68125 241.988777 
z
" clip-path="url(#pfb37e2c7fc)" style="fill: #786f91; stroke: #ffffff; stroke-width: 0.35; stroke-linejoin: miter"/>
   </g>
   <g id="patch_112">
    <path d="M 792.188603 377.856 
L 797.524632 377.856 
L 797.524632 234.637932 
L 792.188603 234.637932 
z
" clip-path="url(#pfb37e2c7fc)" style="fill: #786f91; stroke: #ffffff; stroke-width: 0.35; stroke-linejoin: miter"/>
   </g>
   <g id="patch_113">
    <path d="M 798.695956 377.856 
L 804.031985 377.856 
L 804.031985 235.670555 
L 798.695956 235.670555 
z
" clip-path="url(#pfb37e2c7fc)" style="fill: #786f91; stroke: #ffffff; stroke-width: 0.35; stroke-linejoin: miter"/>
   </g>
   <g id="patch_114">
    <path d="M 805.203309 377.856 
L 810.539338 377.856 
L 810.539338 270.403804 
L 805.203309 270.403804 
z
" clip-path="url(#pfb37e2c7fc)" style="fill: #786f91; stroke: #ffffff; stroke-width: 0.35; stroke-linejoin: miter"/>
   </g>
   <g id="patch_115">
    <path d="M 811.710662 377.856 
L 817.046691 377.856 
L 817.046691 274.966308 
L 811.710662 274.966308 
z
" clip-path="url(#pfb37e2c7fc)" style="fill: #786f91; stroke: #ffffff; stroke-width: 0.35; stroke-linejoin: miter"/>
   </g>
   <g id="patch_116">
    <path d="M 818.218015 377.856 
L 823.554044 377.856 
L 823.554044 235.198699 
L 818.218015 235.198699 
z
" clip-path="url(#pfb37e2c7fc)" style="fill: #786f91; stroke: #ffffff; stroke-width: 0.35; stroke-linejoin: miter"/>
   </g>
   <g id="patch_117">
    <path d="M 824.725368 377.856 
L 830.061397 377.856 
L 830.061397 257.700954 
L 824.725368 257.700954 
z
" clip-path="url(#pfb37e2c7fc)" style="fill: #786f91; stroke: #ffffff; stroke-width: 0.35; stroke-linejoin: miter"/>
   </g>
   <g id="patch_118">
    <path d="M 831.232721 377.856 
L 836.56875 377.856 
L 836.56875 328.87816 
L 831.232721 328.87816 
z
" clip-path="url(#pfb37e2c7fc)" style="fill: #786f91; stroke: #ffffff; stroke-width: 0.35; stroke-linejoin: miter"/>
   </g>
   <g id="patch_119">
    <path d="M 837.740074 377.856 
L 843.076103 377.856 
L 843.076103 273.857318 
L 837.740074 273.857318 
z
" clip-path="url(#pfb37e2c7fc)" style="fill: #786f91; stroke: #ffffff; stroke-width: 0.35; stroke-linejoin: miter"/>
   </g>
   <g id="patch_120">
    <path d="M 844.247426 377.856 
L 849.583456 377.856 
L 849.583456 285.731561 
L 844.247426 285.731561 
z
" clip-path="url(#pfb37e2c7fc)" style="fill: #786f91; stroke: #ffffff; stroke-width: 0.35; stroke-linejoin: miter"/>
   </g>
   <g id="patch_121">
    <path d="M 850.754779 377.856 
L 856.090809 377.856 
L 856.090809 251.743173 
L 850.754779 251.743173 
z
" clip-path="url(#pfb37e2c7fc)" style="fill: #786f91; stroke: #ffffff; stroke-width: 0.35; stroke-linejoin: miter"/>
   </g>
   <g id="patch_122">
    <path d="M 857.262132 377.856 
L 862.598162 377.856 
L 862.598162 249.596025 
L 857.262132 249.596025 
z
" clip-path="url(#pfb37e2c7fc)" style="fill: #786f91; stroke: #ffffff; stroke-width: 0.35; stroke-linejoin: miter"/>
   </g>
   <g id="patch_123">
    <path d="M 863.769485 377.856 
L 869.105515 377.856 
L 869.105515 282.232669 
L 863.769485 282.232669 
z
" clip-path="url(#pfb37e2c7fc)" style="fill: #786f91; stroke: #ffffff; stroke-width: 0.35; stroke-linejoin: miter"/>
   </g>
   <g id="patch_124">
    <path d="M 870.276838 377.856 
L 875.612868 377.856 
L 875.612868 279.699256 
L 870.276838 279.699256 
z
" clip-path="url(#pfb37e2c7fc)" style="fill: #786f91; stroke: #ffffff; stroke-width: 0.35; stroke-linejoin: miter"/>
   </g>
   <g id="patch_125">
    <path d="M 81 377.856 
L 81 105.984 
" style="fill: none; stroke: #000000; stroke-width: 0.8; stroke-linejoin: miter; stroke-linecap: square"/>
   </g>
   <g id="patch_126">
    <path d="M 81 377.856 
L 877.5 377.856 
" style="fill: none; stroke: #000000; stroke-width: 0.8; stroke-linejoin: miter; stroke-linecap: square"/>
   </g>
  </g>
  <g id="text_18">
   <!-- Active-Tape Stock-Hours by Trading Date -->
   <g transform="translate(232.095234 35.173031) scale(0.19 -0.19)">
    <defs>
     <path id="DejaVuSans-Bold-41" d="M 3419 850 
L 1538 850 
L 1241 0 
L 31 0 
L 1759 4666 
L 3194 4666 
L 4922 0 
L 3713 0 
L 3419 850 
z
M 1838 1716 
L 3116 1716 
L 2478 3572 
L 1838 1716 
z
" transform="scale(0.015625)"/>
     <path id="DejaVuSans-Bold-63" d="M 3366 3391 
L 3366 2478 
Q 3138 2634 2908 2709 
Q 2678 2784 2431 2784 
Q 1963 2784 1702 2511 
Q 1441 2238 1441 1747 
Q 1441 1256 1702 982 
Q 1963 709 2431 709 
Q 2694 709 2930 787 
Q 3166 866 3366 1019 
L 3366 103 
Q 3103 6 2833 -42 
Q 2563 -91 2291 -91 
Q 1344 -91 809 395 
Q 275 881 275 1747 
Q 275 2613 809 3098 
Q 1344 3584 2291 3584 
Q 2566 3584 2833 3536 
Q 3100 3488 3366 3391 
z
" transform="scale(0.015625)"/>
     <path id="DejaVuSans-Bold-74" d="M 1759 4494 
L 1759 3500 
L 2913 3500 
L 2913 2700 
L 1759 2700 
L 1759 1216 
Q 1759 972 1856 886 
Q 1953 800 2241 800 
L 2816 800 
L 2816 0 
L 1856 0 
Q 1194 0 917 276 
Q 641 553 641 1216 
L 641 2700 
L 84 2700 
L 84 3500 
L 641 3500 
L 641 4494 
L 1759 4494 
z
" transform="scale(0.015625)"/>
     <path id="DejaVuSans-Bold-69" d="M 538 3500 
L 1656 3500 
L 1656 0 
L 538 0 
L 538 3500 
z
M 538 4863 
L 1656 4863 
L 1656 3950 
L 538 3950 
L 538 4863 
z
" transform="scale(0.015625)"/>
     <path id="DejaVuSans-Bold-76" d="M 97 3500 
L 1216 3500 
L 2088 1081 
L 2956 3500 
L 4078 3500 
L 2700 0 
L 1472 0 
L 97 3500 
z
" transform="scale(0.015625)"/>
     <path id="DejaVuSans-Bold-65" d="M 4031 1759 
L 4031 1441 
L 1416 1441 
Q 1456 1047 1700 850 
Q 1944 653 2381 653 
Q 2734 653 3104 758 
Q 3475 863 3866 1075 
L 3866 213 
Q 3469 63 3072 -14 
Q 2675 -91 2278 -91 
Q 1328 -91 801 392 
Q 275 875 275 1747 
Q 275 2603 792 3093 
Q 1309 3584 2216 3584 
Q 3041 3584 3536 3087 
Q 4031 2591 4031 1759 
z
M 2881 2131 
Q 2881 2450 2695 2645 
Q 2509 2841 2209 2841 
Q 1884 2841 1681 2658 
Q 1478 2475 1428 2131 
L 2881 2131 
z
" transform="scale(0.015625)"/>
     <path id="DejaVuSans-Bold-2d" d="M 347 2297 
L 2309 2297 
L 2309 1388 
L 347 1388 
L 347 2297 
z
" transform="scale(0.015625)"/>
     <path id="DejaVuSans-Bold-54" d="M 31 4666 
L 4331 4666 
L 4331 3756 
L 2784 3756 
L 2784 0 
L 1581 0 
L 1581 3756 
L 31 3756 
L 31 4666 
z
" transform="scale(0.015625)"/>
     <path id="DejaVuSans-Bold-61" d="M 2106 1575 
Q 1756 1575 1579 1456 
Q 1403 1338 1403 1106 
Q 1403 894 1545 773 
Q 1688 653 1941 653 
Q 2256 653 2472 879 
Q 2688 1106 2688 1447 
L 2688 1575 
L 2106 1575 
z
M 3816 1997 
L 3816 0 
L 2688 0 
L 2688 519 
Q 2463 200 2181 54 
Q 1900 -91 1497 -91 
Q 953 -91 614 226 
Q 275 544 275 1050 
Q 275 1666 698 1953 
Q 1122 2241 2028 2241 
L 2688 2241 
L 2688 2328 
Q 2688 2594 2478 2717 
Q 2269 2841 1825 2841 
Q 1466 2841 1156 2769 
Q 847 2697 581 2553 
L 581 3406 
Q 941 3494 1303 3539 
Q 1666 3584 2028 3584 
Q 2975 3584 3395 3211 
Q 3816 2838 3816 1997 
z
" transform="scale(0.015625)"/>
     <path id="DejaVuSans-Bold-70" d="M 1656 506 
L 1656 -1331 
L 538 -1331 
L 538 3500 
L 1656 3500 
L 1656 2988 
Q 1888 3294 2169 3439 
Q 2450 3584 2816 3584 
Q 3463 3584 3878 3070 
Q 4294 2556 4294 1747 
Q 4294 938 3878 423 
Q 3463 -91 2816 -91 
Q 2450 -91 2169 54 
Q 1888 200 1656 506 
z
M 2400 2772 
Q 2041 2772 1848 2508 
Q 1656 2244 1656 1747 
Q 1656 1250 1848 986 
Q 2041 722 2400 722 
Q 2759 722 2948 984 
Q 3138 1247 3138 1747 
Q 3138 2247 2948 2509 
Q 2759 2772 2400 2772 
z
" transform="scale(0.015625)"/>
     <path id="DejaVuSans-Bold-20" transform="scale(0.015625)"/>
     <path id="DejaVuSans-Bold-53" d="M 3834 4519 
L 3834 3531 
Q 3450 3703 3084 3790 
Q 2719 3878 2394 3878 
Q 1963 3878 1756 3759 
Q 1550 3641 1550 3391 
Q 1550 3203 1689 3098 
Q 1828 2994 2194 2919 
L 2706 2816 
Q 3484 2659 3812 2340 
Q 4141 2022 4141 1434 
Q 4141 663 3683 286 
Q 3225 -91 2284 -91 
Q 1841 -91 1394 -6 
Q 947 78 500 244 
L 500 1259 
Q 947 1022 1364 901 
Q 1781 781 2169 781 
Q 2563 781 2772 912 
Q 2981 1044 2981 1288 
Q 2981 1506 2839 1625 
Q 2697 1744 2272 1838 
L 1806 1941 
Q 1106 2091 782 2419 
Q 459 2747 459 3303 
Q 459 4000 909 4375 
Q 1359 4750 2203 4750 
Q 2588 4750 2994 4692 
Q 3400 4634 3834 4519 
z
" transform="scale(0.015625)"/>
     <path id="DejaVuSans-Bold-6f" d="M 2203 2784 
Q 1831 2784 1636 2517 
Q 1441 2250 1441 1747 
Q 1441 1244 1636 976 
Q 1831 709 2203 709 
Q 2569 709 2762 976 
Q 2956 1244 2956 1747 
Q 2956 2250 2762 2517 
Q 2569 2784 2203 2784 
z
M 2203 3584 
Q 3106 3584 3614 3096 
Q 4122 2609 4122 1747 
Q 4122 884 3614 396 
Q 3106 -91 2203 -91 
Q 1297 -91 786 396 
Q 275 884 275 1747 
Q 275 2609 786 3096 
Q 1297 3584 2203 3584 
z
" transform="scale(0.015625)"/>
     <path id="DejaVuSans-Bold-6b" d="M 538 4863 
L 1656 4863 
L 1656 2216 
L 2944 3500 
L 4244 3500 
L 2534 1894 
L 4378 0 
L 3022 0 
L 1656 1459 
L 1656 0 
L 538 0 
L 538 4863 
z
" transform="scale(0.015625)"/>
     <path id="DejaVuSans-Bold-48" d="M 588 4666 
L 1791 4666 
L 1791 2888 
L 3566 2888 
L 3566 4666 
L 4769 4666 
L 4769 0 
L 3566 0 
L 3566 1978 
L 1791 1978 
L 1791 0 
L 588 0 
L 588 4666 
z
" transform="scale(0.015625)"/>
     <path id="DejaVuSans-Bold-75" d="M 500 1363 
L 500 3500 
L 1625 3500 
L 1625 3150 
Q 1625 2866 1622 2436 
Q 1619 2006 1619 1863 
Q 1619 1441 1641 1255 
Q 1663 1069 1716 984 
Q 1784 875 1895 815 
Q 2006 756 2150 756 
Q 2500 756 2700 1025 
Q 2900 1294 2900 1772 
L 2900 3500 
L 4019 3500 
L 4019 0 
L 2900 0 
L 2900 506 
Q 2647 200 2364 54 
Q 2081 -91 1741 -91 
Q 1134 -91 817 281 
Q 500 653 500 1363 
z
" transform="scale(0.015625)"/>
     <path id="DejaVuSans-Bold-72" d="M 3138 2547 
Q 2991 2616 2845 2648 
Q 2700 2681 2553 2681 
Q 2122 2681 1889 2404 
Q 1656 2128 1656 1613 
L 1656 0 
L 538 0 
L 538 3500 
L 1656 3500 
L 1656 2925 
Q 1872 3269 2151 3426 
Q 2431 3584 2822 3584 
Q 2878 3584 2943 3579 
Q 3009 3575 3134 3559 
L 3138 2547 
z
" transform="scale(0.015625)"/>
     <path id="DejaVuSans-Bold-73" d="M 3272 3391 
L 3272 2541 
Q 2913 2691 2578 2766 
Q 2244 2841 1947 2841 
Q 1628 2841 1473 2761 
Q 1319 2681 1319 2516 
Q 1319 2381 1436 2309 
Q 1553 2238 1856 2203 
L 2053 2175 
Q 2913 2066 3209 1816 
Q 3506 1566 3506 1031 
Q 3506 472 3093 190 
Q 2681 -91 1863 -91 
Q 1516 -91 1145 -36 
Q 775 19 384 128 
L 384 978 
Q 719 816 1070 734 
Q 1422 653 1784 653 
Q 2113 653 2278 743 
Q 2444 834 2444 1013 
Q 2444 1163 2330 1236 
Q 2216 1309 1875 1350 
L 1678 1375 
Q 931 1469 631 1722 
Q 331 1975 331 2491 
Q 331 3047 712 3315 
Q 1094 3584 1881 3584 
Q 2191 3584 2531 3537 
Q 2872 3491 3272 3391 
z
" transform="scale(0.015625)"/>
     <path id="DejaVuSans-Bold-62" d="M 2400 722 
Q 2759 722 2948 984 
Q 3138 1247 3138 1747 
Q 3138 2247 2948 2509 
Q 2759 2772 2400 2772 
Q 2041 2772 1848 2508 
Q 1656 2244 1656 1747 
Q 1656 1250 1848 986 
Q 2041 722 2400 722 
z
M 1656 2988 
Q 1888 3294 2169 3439 
Q 2450 3584 2816 3584 
Q 3463 3584 3878 3070 
Q 4294 2556 4294 1747 
Q 4294 938 3878 423 
Q 3463 -91 2816 -91 
Q 2450 -91 2169 54 
Q 1888 200 1656 506 
L 1656 0 
L 538 0 
L 538 4863 
L 1656 4863 
L 1656 2988 
z
" transform="scale(0.015625)"/>
     <path id="DejaVuSans-Bold-79" d="M 78 3500 
L 1197 3500 
L 2138 1125 
L 2938 3500 
L 4056 3500 
L 2584 -331 
Q 2363 -916 2067 -1148 
Q 1772 -1381 1288 -1381 
L 641 -1381 
L 641 -647 
L 991 -647 
Q 1275 -647 1404 -556 
Q 1534 -466 1606 -231 
L 1638 -134 
L 78 3500 
z
" transform="scale(0.015625)"/>
     <path id="DejaVuSans-Bold-64" d="M 2919 2988 
L 2919 4863 
L 4044 4863 
L 4044 0 
L 2919 0 
L 2919 506 
Q 2688 197 2409 53 
Q 2131 -91 1766 -91 
Q 1119 -91 703 423 
Q 288 938 288 1747 
Q 288 2556 703 3070 
Q 1119 3584 1766 3584 
Q 2128 3584 2408 3439 
Q 2688 3294 2919 2988 
z
M 2181 722 
Q 2541 722 2730 984 
Q 2919 1247 2919 1747 
Q 2919 2247 2730 2509 
Q 2541 2772 2181 2772 
Q 1825 2772 1636 2509 
Q 1447 2247 1447 1747 
Q 1447 1247 1636 984 
Q 1825 722 2181 722 
z
" transform="scale(0.015625)"/>
     <path id="DejaVuSans-Bold-6e" d="M 4056 2131 
L 4056 0 
L 2931 0 
L 2931 347 
L 2931 1631 
Q 2931 2084 2911 2256 
Q 2891 2428 2841 2509 
Q 2775 2619 2662 2680 
Q 2550 2741 2406 2741 
Q 2056 2741 1856 2470 
Q 1656 2200 1656 1722 
L 1656 0 
L 538 0 
L 538 3500 
L 1656 3500 
L 1656 2988 
Q 1909 3294 2193 3439 
Q 2478 3584 2822 3584 
Q 3428 3584 3742 3212 
Q 4056 2841 4056 2131 
z
" transform="scale(0.015625)"/>
     <path id="DejaVuSans-Bold-67" d="M 2919 594 
Q 2688 288 2409 144 
Q 2131 0 1766 0 
Q 1125 0 706 504 
Q 288 1009 288 1791 
Q 288 2575 706 3076 
Q 1125 3578 1766 3578 
Q 2131 3578 2409 3434 
Q 2688 3291 2919 2981 
L 2919 3500 
L 4044 3500 
L 4044 353 
Q 4044 -491 3511 -936 
Q 2978 -1381 1966 -1381 
Q 1638 -1381 1331 -1331 
Q 1025 -1281 716 -1178 
L 716 -306 
Q 1009 -475 1290 -558 
Q 1572 -641 1856 -641 
Q 2406 -641 2662 -400 
Q 2919 -159 2919 353 
L 2919 594 
z
M 2181 2772 
Q 1834 2772 1640 2515 
Q 1447 2259 1447 1791 
Q 1447 1309 1634 1061 
Q 1822 813 2181 813 
Q 2531 813 2725 1069 
Q 2919 1325 2919 1791 
Q 2919 2259 2725 2515 
Q 2531 2772 2181 2772 
z
" transform="scale(0.015625)"/>
     <path id="DejaVuSans-Bold-44" d="M 1791 3756 
L 1791 909 
L 2222 909 
Q 2959 909 3348 1275 
Q 3738 1641 3738 2338 
Q 3738 3031 3350 3393 
Q 2963 3756 2222 3756 
L 1791 3756 
z
M 588 4666 
L 1856 4666 
Q 2919 4666 3439 4514 
Q 3959 4363 4331 4000 
Q 4659 3684 4818 3271 
Q 4978 2859 4978 2338 
Q 4978 1809 4818 1395 
Q 4659 981 4331 666 
Q 3956 303 3431 151 
Q 2906 0 1856 0 
L 588 0 
L 588 4666 
z
" transform="scale(0.015625)"/>
    </defs>
    <use xlink:href="#DejaVuSans-Bold-41"/>
    <use xlink:href="#DejaVuSans-Bold-63" transform="translate(77.392578 0)"/>
    <use xlink:href="#DejaVuSans-Bold-74" transform="translate(136.669922 0)"/>
    <use xlink:href="#DejaVuSans-Bold-69" transform="translate(184.472656 0)"/>
    <use xlink:href="#DejaVuSans-Bold-76" transform="translate(218.75 0)"/>
    <use xlink:href="#DejaVuSans-Bold-65" transform="translate(283.935547 0)"/>
    <use xlink:href="#DejaVuSans-Bold-2d" transform="translate(351.757812 0)"/>
    <use xlink:href="#DejaVuSans-Bold-54" transform="translate(378.511719 0)"/>
    <use xlink:href="#DejaVuSans-Bold-61" transform="translate(433.849609 0)"/>
    <use xlink:href="#DejaVuSans-Bold-70" transform="translate(501.330078 0)"/>
    <use xlink:href="#DejaVuSans-Bold-65" transform="translate(572.912109 0)"/>
    <use xlink:href="#DejaVuSans-Bold-20" transform="translate(640.734375 0)"/>
    <use xlink:href="#DejaVuSans-Bold-53" transform="translate(675.548828 0)"/>
    <use xlink:href="#DejaVuSans-Bold-74" transform="translate(747.570312 0)"/>
    <use xlink:href="#DejaVuSans-Bold-6f" transform="translate(795.373047 0)"/>
    <use xlink:href="#DejaVuSans-Bold-63" transform="translate(864.074219 0)"/>
    <use xlink:href="#DejaVuSans-Bold-6b" transform="translate(923.351562 0)"/>
    <use xlink:href="#DejaVuSans-Bold-2d" transform="translate(989.855469 0)"/>
    <use xlink:href="#DejaVuSans-Bold-48" transform="translate(1031.359375 0)"/>
    <use xlink:href="#DejaVuSans-Bold-6f" transform="translate(1115.050781 0)"/>
    <use xlink:href="#DejaVuSans-Bold-75" transform="translate(1183.751953 0)"/>
    <use xlink:href="#DejaVuSans-Bold-72" transform="translate(1254.943359 0)"/>
    <use xlink:href="#DejaVuSans-Bold-73" transform="translate(1304.259766 0)"/>
    <use xlink:href="#DejaVuSans-Bold-20" transform="translate(1363.78125 0)"/>
    <use xlink:href="#DejaVuSans-Bold-62" transform="translate(1398.595703 0)"/>
    <use xlink:href="#DejaVuSans-Bold-79" transform="translate(1470.177734 0)"/>
    <use xlink:href="#DejaVuSans-Bold-20" transform="translate(1535.363281 0)"/>
    <use xlink:href="#DejaVuSans-Bold-54" transform="translate(1570.177734 0)"/>
    <use xlink:href="#DejaVuSans-Bold-72" transform="translate(1627.390625 0)"/>
    <use xlink:href="#DejaVuSans-Bold-61" transform="translate(1676.707031 0)"/>
    <use xlink:href="#DejaVuSans-Bold-64" transform="translate(1744.1875 0)"/>
    <use xlink:href="#DejaVuSans-Bold-69" transform="translate(1815.769531 0)"/>
    <use xlink:href="#DejaVuSans-Bold-6e" transform="translate(1850.046875 0)"/>
    <use xlink:href="#DejaVuSans-Bold-67" transform="translate(1921.238281 0)"/>
    <use xlink:href="#DejaVuSans-Bold-20" transform="translate(1992.820312 0)"/>
    <use xlink:href="#DejaVuSans-Bold-44" transform="translate(2027.634766 0)"/>
    <use xlink:href="#DejaVuSans-Bold-61" transform="translate(2110.642578 0)"/>
    <use xlink:href="#DejaVuSans-Bold-74" transform="translate(2178.123047 0)"/>
    <use xlink:href="#DejaVuSans-Bold-65" transform="translate(2225.925781 0)"/>
   </g>
  </g>
  <g id="text_19">
   <!-- Fast gate: trade rate ≥ 1/s and 60s trade-age p90 ≤ 2s · 11,862.3 active stock-hours -->
   <g style="fill: #475569" transform="translate(216.239688 57.6) scale(0.11 -0.11)">
    <defs>
     <path id="DejaVuSans-46" d="M 628 4666 
L 3309 4666 
L 3309 4134 
L 1259 4134 
L 1259 2759 
L 3109 2759 
L 3109 2228 
L 1259 2228 
L 1259 0 
L 628 0 
L 628 4666 
z
" transform="scale(0.015625)"/>
     <path id="DejaVuSans-3a" d="M 750 794 
L 1409 794 
L 1409 0 
L 750 0 
L 750 794 
z
M 750 3309 
L 1409 3309 
L 1409 2516 
L 750 2516 
L 750 3309 
z
" transform="scale(0.015625)"/>
     <path id="DejaVuSans-2265" d="M 678 3175 
L 678 3725 
L 4684 2578 
L 4684 2047 
L 678 897 
L 678 1453 
L 3681 2309 
L 678 3175 
z
M 4684 531 
L 4684 0 
L 678 0 
L 678 531 
L 4684 531 
z
" transform="scale(0.015625)"/>
     <path id="DejaVuSans-2f" d="M 1625 4666 
L 2156 4666 
L 531 -594 
L 0 -594 
L 1625 4666 
z
" transform="scale(0.015625)"/>
     <path id="DejaVuSans-36" d="M 2113 2584 
Q 1688 2584 1439 2293 
Q 1191 2003 1191 1497 
Q 1191 994 1439 701 
Q 1688 409 2113 409 
Q 2538 409 2786 701 
Q 3034 994 3034 1497 
Q 3034 2003 2786 2293 
Q 2538 2584 2113 2584 
z
M 3366 4563 
L 3366 3988 
Q 3128 4100 2886 4159 
Q 2644 4219 2406 4219 
Q 1781 4219 1451 3797 
Q 1122 3375 1075 2522 
Q 1259 2794 1537 2939 
Q 1816 3084 2150 3084 
Q 2853 3084 3261 2657 
Q 3669 2231 3669 1497 
Q 3669 778 3244 343 
Q 2819 -91 2113 -91 
Q 1303 -91 875 529 
Q 447 1150 447 2328 
Q 447 3434 972 4092 
Q 1497 4750 2381 4750 
Q 2619 4750 2861 4703 
Q 3103 4656 3366 4563 
z
" transform="scale(0.015625)"/>
     <path id="DejaVuSans-39" d="M 703 97 
L 703 672 
Q 941 559 1184 500 
Q 1428 441 1663 441 
Q 2288 441 2617 861 
Q 2947 1281 2994 2138 
Q 2813 1869 2534 1725 
Q 2256 1581 1919 1581 
Q 1219 1581 811 2004 
Q 403 2428 403 3163 
Q 403 3881 828 4315 
Q 1253 4750 1959 4750 
Q 2769 4750 3195 4129 
Q 3622 3509 3622 2328 
Q 3622 1225 3098 567 
Q 2575 -91 1691 -91 
Q 1453 -91 1209 -44 
Q 966 3 703 97 
z
M 1959 2075 
Q 2384 2075 2632 2365 
Q 2881 2656 2881 3163 
Q 2881 3666 2632 3958 
Q 2384 4250 1959 4250 
Q 1534 4250 1286 3958 
Q 1038 3666 1038 3163 
Q 1038 2656 1286 2365 
Q 1534 2075 1959 2075 
z
" transform="scale(0.015625)"/>
     <path id="DejaVuSans-2264" d="M 4684 3175 
L 1684 2309 
L 4684 1453 
L 4684 897 
L 678 2047 
L 678 2578 
L 4684 3725 
L 4684 3175 
z
M 678 531 
L 4684 531 
L 4684 0 
L 678 0 
L 678 531 
z
" transform="scale(0.015625)"/>
     <path id="DejaVuSans-b7" d="M 684 2619 
L 1344 2619 
L 1344 1825 
L 684 1825 
L 684 2619 
z
" transform="scale(0.015625)"/>
     <path id="DejaVuSans-2c" d="M 750 794 
L 1409 794 
L 1409 256 
L 897 -744 
L 494 -744 
L 750 256 
L 750 794 
z
" transform="scale(0.015625)"/>
     <path id="DejaVuSans-38" d="M 2034 2216 
Q 1584 2216 1326 1975 
Q 1069 1734 1069 1313 
Q 1069 891 1326 650 
Q 1584 409 2034 409 
Q 2484 409 2743 651 
Q 3003 894 3003 1313 
Q 3003 1734 2745 1975 
Q 2488 2216 2034 2216 
z
M 1403 2484 
Q 997 2584 770 2862 
Q 544 3141 544 3541 
Q 544 4100 942 4425 
Q 1341 4750 2034 4750 
Q 2731 4750 3128 4425 
Q 3525 4100 3525 3541 
Q 3525 3141 3298 2862 
Q 3072 2584 2669 2484 
Q 3125 2378 3379 2068 
Q 3634 1759 3634 1313 
Q 3634 634 3220 271 
Q 2806 -91 2034 -91 
Q 1263 -91 848 271 
Q 434 634 434 1313 
Q 434 1759 690 2068 
Q 947 2378 1403 2484 
z
M 1172 3481 
Q 1172 3119 1398 2916 
Q 1625 2713 2034 2713 
Q 2441 2713 2670 2916 
Q 2900 3119 2900 3481 
Q 2900 3844 2670 4047 
Q 2441 4250 2034 4250 
Q 1625 4250 1398 4047 
Q 1172 3844 1172 3481 
z
" transform="scale(0.015625)"/>
     <path id="DejaVuSans-2e" d="M 684 794 
L 1344 794 
L 1344 0 
L 684 0 
L 684 794 
z
" transform="scale(0.015625)"/>
     <path id="DejaVuSans-33" d="M 2597 2516 
Q 3050 2419 3304 2112 
Q 3559 1806 3559 1356 
Q 3559 666 3084 287 
Q 2609 -91 1734 -91 
Q 1441 -91 1130 -33 
Q 819 25 488 141 
L 488 750 
Q 750 597 1062 519 
Q 1375 441 1716 441 
Q 2309 441 2620 675 
Q 2931 909 2931 1356 
Q 2931 1769 2642 2001 
Q 2353 2234 1838 2234 
L 1294 2234 
L 1294 2753 
L 1863 2753 
Q 2328 2753 2575 2939 
Q 2822 3125 2822 3475 
Q 2822 3834 2567 4026 
Q 2313 4219 1838 4219 
Q 1578 4219 1281 4162 
Q 984 4106 628 3988 
L 628 4550 
Q 988 4650 1302 4700 
Q 1616 4750 1894 4750 
Q 2613 4750 3031 4423 
Q 3450 4097 3450 3541 
Q 3450 3153 3228 2886 
Q 3006 2619 2597 2516 
z
" transform="scale(0.015625)"/>
    </defs>
    <use xlink:href="#DejaVuSans-46"/>
    <use xlink:href="#DejaVuSans-61" transform="translate(48.394531 0)"/>
    <use xlink:href="#DejaVuSans-73" transform="translate(109.673828 0)"/>
    <use xlink:href="#DejaVuSans-74" transform="translate(161.773438 0)"/>
    <use xlink:href="#DejaVuSans-20" transform="translate(200.982422 0)"/>
    <use xlink:href="#DejaVuSans-67" transform="translate(232.769531 0)"/>
    <use xlink:href="#DejaVuSans-61" transform="translate(296.246094 0)"/>
    <use xlink:href="#DejaVuSans-74" transform="translate(357.525391 0)"/>
    <use xlink:href="#DejaVuSans-65" transform="translate(396.734375 0)"/>
    <use xlink:href="#DejaVuSans-3a" transform="translate(458.257812 0)"/>
    <use xlink:href="#DejaVuSans-20" transform="translate(491.949219 0)"/>
    <use xlink:href="#DejaVuSans-74" transform="translate(523.736328 0)"/>
    <use xlink:href="#DejaVuSans-72" transform="translate(562.945312 0)"/>
    <use xlink:href="#DejaVuSans-61" transform="translate(604.058594 0)"/>
    <use xlink:href="#DejaVuSans-64" transform="translate(665.337891 0)"/>
    <use xlink:href="#DejaVuSans-65" transform="translate(728.814453 0)"/>
    <use xlink:href="#DejaVuSans-20" transform="translate(790.337891 0)"/>
    <use xlink:href="#DejaVuSans-72" transform="translate(822.125 0)"/>
    <use xlink:href="#DejaVuSans-61" transform="translate(863.238281 0)"/>
    <use xlink:href="#DejaVuSans-74" transform="translate(924.517578 0)"/>
    <use xlink:href="#DejaVuSans-65" transform="translate(963.726562 0)"/>
    <use xlink:href="#DejaVuSans-20" transform="translate(1025.25 0)"/>
    <use xlink:href="#DejaVuSans-2265" transform="translate(1057.037109 0)"/>
    <use xlink:href="#DejaVuSans-20" transform="translate(1140.826172 0)"/>
    <use xlink:href="#DejaVuSans-31" transform="translate(1172.613281 0)"/>
    <use xlink:href="#DejaVuSans-2f" transform="translate(1236.236328 0)"/>
    <use xlink:href="#DejaVuSans-73" transform="translate(1269.927734 0)"/>
    <use xlink:href="#DejaVuSans-20" transform="translate(1322.027344 0)"/>
    <use xlink:href="#DejaVuSans-61" transform="translate(1353.814453 0)"/>
    <use xlink:href="#DejaVuSans-6e" transform="translate(1415.09375 0)"/>
    <use xlink:href="#DejaVuSans-64" transform="translate(1478.472656 0)"/>
    <use xlink:href="#DejaVuSans-20" transform="translate(1541.949219 0)"/>
    <use xlink:href="#DejaVuSans-36" transform="translate(1573.736328 0)"/>
    <use xlink:href="#DejaVuSans-30" transform="translate(1637.359375 0)"/>
    <use xlink:href="#DejaVuSans-73" transform="translate(1700.982422 0)"/>
    <use xlink:href="#DejaVuSans-20" transform="translate(1753.082031 0)"/>
    <use xlink:href="#DejaVuSans-74" transform="translate(1784.869141 0)"/>
    <use xlink:href="#DejaVuSans-72" transform="translate(1824.078125 0)"/>
    <use xlink:href="#DejaVuSans-61" transform="translate(1865.191406 0)"/>
    <use xlink:href="#DejaVuSans-64" transform="translate(1926.470703 0)"/>
    <use xlink:href="#DejaVuSans-65" transform="translate(1989.947266 0)"/>
    <use xlink:href="#DejaVuSans-2d" transform="translate(2051.470703 0)"/>
    <use xlink:href="#DejaVuSans-61" transform="translate(2087.554688 0)"/>
    <use xlink:href="#DejaVuSans-67" transform="translate(2148.833984 0)"/>
    <use xlink:href="#DejaVuSans-65" transform="translate(2212.310547 0)"/>
    <use xlink:href="#DejaVuSans-20" transform="translate(2273.833984 0)"/>
    <use xlink:href="#DejaVuSans-70" transform="translate(2305.621094 0)"/>
    <use xlink:href="#DejaVuSans-39" transform="translate(2369.097656 0)"/>
    <use xlink:href="#DejaVuSans-30" transform="translate(2432.720703 0)"/>
    <use xlink:href="#DejaVuSans-20" transform="translate(2496.34375 0)"/>
    <use xlink:href="#DejaVuSans-2264" transform="translate(2528.130859 0)"/>
    <use xlink:href="#DejaVuSans-20" transform="translate(2611.919922 0)"/>
    <use xlink:href="#DejaVuSans-32" transform="translate(2643.707031 0)"/>
    <use xlink:href="#DejaVuSans-73" transform="translate(2707.330078 0)"/>
    <use xlink:href="#DejaVuSans-20" transform="translate(2759.429688 0)"/>
    <use xlink:href="#DejaVuSans-b7" transform="translate(2791.216797 0)"/>
    <use xlink:href="#DejaVuSans-20" transform="translate(2823.003906 0)"/>
    <use xlink:href="#DejaVuSans-31" transform="translate(2854.791016 0)"/>
    <use xlink:href="#DejaVuSans-31" transform="translate(2918.414062 0)"/>
    <use xlink:href="#DejaVuSans-2c" transform="translate(2982.037109 0)"/>
    <use xlink:href="#DejaVuSans-38" transform="translate(3013.824219 0)"/>
    <use xlink:href="#DejaVuSans-36" transform="translate(3077.447266 0)"/>
    <use xlink:href="#DejaVuSans-32" transform="translate(3141.070312 0)"/>
    <use xlink:href="#DejaVuSans-2e" transform="translate(3204.693359 0)"/>
    <use xlink:href="#DejaVuSans-33" transform="translate(3236.480469 0)"/>
    <use xlink:href="#DejaVuSans-20" transform="translate(3300.103516 0)"/>
    <use xlink:href="#DejaVuSans-61" transform="translate(3331.890625 0)"/>
    <use xlink:href="#DejaVuSans-63" transform="translate(3393.169922 0)"/>
    <use xlink:href="#DejaVuSans-74" transform="translate(3448.150391 0)"/>
    <use xlink:href="#DejaVuSans-69" transform="translate(3487.359375 0)"/>
    <use xlink:href="#DejaVuSans-76" transform="translate(3515.142578 0)"/>
    <use xlink:href="#DejaVuSans-65" transform="translate(3574.322266 0)"/>
    <use xlink:href="#DejaVuSans-20" transform="translate(3635.845703 0)"/>
    <use xlink:href="#DejaVuSans-73" transform="translate(3667.632812 0)"/>
    <use xlink:href="#DejaVuSans-74" transform="translate(3719.732422 0)"/>
    <use xlink:href="#DejaVuSans-6f" transform="translate(3758.941406 0)"/>
    <use xlink:href="#DejaVuSans-63" transform="translate(3820.123047 0)"/>
    <use xlink:href="#DejaVuSans-6b" transform="translate(3875.103516 0)"/>
    <use xlink:href="#DejaVuSans-2d" transform="translate(3933.013672 0)"/>
    <use xlink:href="#DejaVuSans-68" transform="translate(3969.097656 0)"/>
    <use xlink:href="#DejaVuSans-6f" transform="translate(4032.476562 0)"/>
    <use xlink:href="#DejaVuSans-75" transform="translate(4093.658203 0)"/>
    <use xlink:href="#DejaVuSans-72" transform="translate(4157.037109 0)"/>
    <use xlink:href="#DejaVuSans-73" transform="translate(4198.150391 0)"/>
   </g>
  </g>
  <g id="text_20">
   <!-- Each bar sums gate-passing one-second observations across symbols; represented trading dates are evenly spaced. -->
   <g style="fill: #475569" transform="translate(85.5 433.152) scale(0.095 -0.095)">
    <defs>
     <path id="DejaVuSans-45" d="M 628 4666 
L 3578 4666 
L 3578 4134 
L 1259 4134 
L 1259 2753 
L 3481 2753 
L 3481 2222 
L 1259 2222 
L 1259 531 
L 3634 531 
L 3634 0 
L 628 0 
L 628 4666 
z
" transform="scale(0.015625)"/>
     <path id="DejaVuSans-62" d="M 3116 1747 
Q 3116 2381 2855 2742 
Q 2594 3103 2138 3103 
Q 1681 3103 1420 2742 
Q 1159 2381 1159 1747 
Q 1159 1113 1420 752 
Q 1681 391 2138 391 
Q 2594 391 2855 752 
Q 3116 1113 3116 1747 
z
M 1159 2969 
Q 1341 3281 1617 3432 
Q 1894 3584 2278 3584 
Q 2916 3584 3314 3078 
Q 3713 2572 3713 1747 
Q 3713 922 3314 415 
Q 2916 -91 2278 -91 
Q 1894 -91 1617 61 
Q 1341 213 1159 525 
L 1159 0 
L 581 0 
L 581 4863 
L 1159 4863 
L 1159 2969 
z
" transform="scale(0.015625)"/>
     <path id="DejaVuSans-6d" d="M 3328 2828 
Q 3544 3216 3844 3400 
Q 4144 3584 4550 3584 
Q 5097 3584 5394 3201 
Q 5691 2819 5691 2113 
L 5691 0 
L 5113 0 
L 5113 2094 
Q 5113 2597 4934 2840 
Q 4756 3084 4391 3084 
Q 3944 3084 3684 2787 
Q 3425 2491 3425 1978 
L 3425 0 
L 2847 0 
L 2847 2094 
Q 2847 2600 2669 2842 
Q 2491 3084 2119 3084 
Q 1678 3084 1418 2786 
Q 1159 2488 1159 1978 
L 1159 0 
L 581 0 
L 581 3500 
L 1159 3500 
L 1159 2956 
Q 1356 3278 1631 3431 
Q 1906 3584 2284 3584 
Q 2666 3584 2933 3390 
Q 3200 3197 3328 2828 
z
" transform="scale(0.015625)"/>
     <path id="DejaVuSans-3b" d="M 750 3309 
L 1409 3309 
L 1409 2516 
L 750 2516 
L 750 3309 
z
M 750 794 
L 1409 794 
L 1409 256 
L 897 -744 
L 494 -744 
L 750 256 
L 750 794 
z
" transform="scale(0.015625)"/>
    </defs>
    <use xlink:href="#DejaVuSans-45"/>
    <use xlink:href="#DejaVuSans-61" transform="translate(63.183594 0)"/>
    <use xlink:href="#DejaVuSans-63" transform="translate(124.462891 0)"/>
    <use xlink:href="#DejaVuSans-68" transform="translate(179.443359 0)"/>
    <use xlink:href="#DejaVuSans-20" transform="translate(242.822266 0)"/>
    <use xlink:href="#DejaVuSans-62" transform="translate(274.609375 0)"/>
    <use xlink:href="#DejaVuSans-61" transform="translate(338.085938 0)"/>
    <use xlink:href="#DejaVuSans-72" transform="translate(399.365234 0)"/>
    <use xlink:href="#DejaVuSans-20" transform="translate(440.478516 0)"/>
    <use xlink:href="#DejaVuSans-73" transform="translate(472.265625 0)"/>
    <use xlink:href="#DejaVuSans-75" transform="translate(524.365234 0)"/>
    <use xlink:href="#DejaVuSans-6d" transform="translate(587.744141 0)"/>
    <use xlink:href="#DejaVuSans-73" transform="translate(685.15625 0)"/>
    <use xlink:href="#DejaVuSans-20" transform="translate(737.255859 0)"/>
    <use xlink:href="#DejaVuSans-67" transform="translate(769.042969 0)"/>
    <use xlink:href="#DejaVuSans-61" transform="translate(832.519531 0)"/>
    <use xlink:href="#DejaVuSans-74" transform="translate(893.798828 0)"/>
    <use xlink:href="#DejaVuSans-65" transform="translate(933.007812 0)"/>
    <use xlink:href="#DejaVuSans-2d" transform="translate(994.53125 0)"/>
    <use xlink:href="#DejaVuSans-70" transform="translate(1030.615234 0)"/>
    <use xlink:href="#DejaVuSans-61" transform="translate(1094.091797 0)"/>
    <use xlink:href="#DejaVuSans-73" transform="translate(1155.371094 0)"/>
    <use xlink:href="#DejaVuSans-73" transform="translate(1207.470703 0)"/>
    <use xlink:href="#DejaVuSans-69" transform="translate(1259.570312 0)"/>
    <use xlink:href="#DejaVuSans-6e" transform="translate(1287.353516 0)"/>
    <use xlink:href="#DejaVuSans-67" transform="translate(1350.732422 0)"/>
    <use xlink:href="#DejaVuSans-20" transform="translate(1414.208984 0)"/>
    <use xlink:href="#DejaVuSans-6f" transform="translate(1445.996094 0)"/>
    <use xlink:href="#DejaVuSans-6e" transform="translate(1507.177734 0)"/>
    <use xlink:href="#DejaVuSans-65" transform="translate(1570.556641 0)"/>
    <use xlink:href="#DejaVuSans-2d" transform="translate(1632.080078 0)"/>
    <use xlink:href="#DejaVuSans-73" transform="translate(1668.164062 0)"/>
    <use xlink:href="#DejaVuSans-65" transform="translate(1720.263672 0)"/>
    <use xlink:href="#DejaVuSans-63" transform="translate(1781.787109 0)"/>
    <use xlink:href="#DejaVuSans-6f" transform="translate(1836.767578 0)"/>
    <use xlink:href="#DejaVuSans-6e" transform="translate(1897.949219 0)"/>
    <use xlink:href="#DejaVuSans-64" transform="translate(1961.328125 0)"/>
    <use xlink:href="#DejaVuSans-20" transform="translate(2024.804688 0)"/>
    <use xlink:href="#DejaVuSans-6f" transform="translate(2056.591797 0)"/>
    <use xlink:href="#DejaVuSans-62" transform="translate(2117.773438 0)"/>
    <use xlink:href="#DejaVuSans-73" transform="translate(2181.25 0)"/>
    <use xlink:href="#DejaVuSans-65" transform="translate(2233.349609 0)"/>
    <use xlink:href="#DejaVuSans-72" transform="translate(2294.873047 0)"/>
    <use xlink:href="#DejaVuSans-76" transform="translate(2335.986328 0)"/>
    <use xlink:href="#DejaVuSans-61" transform="translate(2395.166016 0)"/>
    <use xlink:href="#DejaVuSans-74" transform="translate(2456.445312 0)"/>
    <use xlink:href="#DejaVuSans-69" transform="translate(2495.654297 0)"/>
    <use xlink:href="#DejaVuSans-6f" transform="translate(2523.4375 0)"/>
    <use xlink:href="#DejaVuSans-6e" transform="translate(2584.619141 0)"/>
    <use xlink:href="#DejaVuSans-73" transform="translate(2647.998047 0)"/>
    <use xlink:href="#DejaVuSans-20" transform="translate(2700.097656 0)"/>
    <use xlink:href="#DejaVuSans-61" transform="translate(2731.884766 0)"/>
    <use xlink:href="#DejaVuSans-63" transform="translate(2793.164062 0)"/>
    <use xlink:href="#DejaVuSans-72" transform="translate(2848.144531 0)"/>
    <use xlink:href="#DejaVuSans-6f" transform="translate(2887.007812 0)"/>
    <use xlink:href="#DejaVuSans-73" transform="translate(2948.189453 0)"/>
    <use xlink:href="#DejaVuSans-73" transform="translate(3000.289062 0)"/>
    <use xlink:href="#DejaVuSans-20" transform="translate(3052.388672 0)"/>
    <use xlink:href="#DejaVuSans-73" transform="translate(3084.175781 0)"/>
    <use xlink:href="#DejaVuSans-79" transform="translate(3136.275391 0)"/>
    <use xlink:href="#DejaVuSans-6d" transform="translate(3195.455078 0)"/>
    <use xlink:href="#DejaVuSans-62" transform="translate(3292.867188 0)"/>
    <use xlink:href="#DejaVuSans-6f" transform="translate(3356.34375 0)"/>
    <use xlink:href="#DejaVuSans-6c" transform="translate(3417.525391 0)"/>
    <use xlink:href="#DejaVuSans-73" transform="translate(3445.308594 0)"/>
    <use xlink:href="#DejaVuSans-3b" transform="translate(3497.408203 0)"/>
    <use xlink:href="#DejaVuSans-20" transform="translate(3531.099609 0)"/>
    <use xlink:href="#DejaVuSans-72" transform="translate(3562.886719 0)"/>
    <use xlink:href="#DejaVuSans-65" transform="translate(3601.75 0)"/>
    <use xlink:href="#DejaVuSans-70" transform="translate(3663.273438 0)"/>
    <use xlink:href="#DejaVuSans-72" transform="translate(3726.75 0)"/>
    <use xlink:href="#DejaVuSans-65" transform="translate(3765.613281 0)"/>
    <use xlink:href="#DejaVuSans-73" transform="translate(3827.136719 0)"/>
    <use xlink:href="#DejaVuSans-65" transform="translate(3879.236328 0)"/>
    <use xlink:href="#DejaVuSans-6e" transform="translate(3940.759766 0)"/>
    <use xlink:href="#DejaVuSans-74" transform="translate(4004.138672 0)"/>
    <use xlink:href="#DejaVuSans-65" transform="translate(4043.347656 0)"/>
    <use xlink:href="#DejaVuSans-64" transform="translate(4104.871094 0)"/>
    <use xlink:href="#DejaVuSans-20" transform="translate(4168.347656 0)"/>
    <use xlink:href="#DejaVuSans-74" transform="translate(4200.134766 0)"/>
    <use xlink:href="#DejaVuSans-72" transform="translate(4239.34375 0)"/>
    <use xlink:href="#DejaVuSans-61" transform="translate(4280.457031 0)"/>
    <use xlink:href="#DejaVuSans-64" transform="translate(4341.736328 0)"/>
    <use xlink:href="#DejaVuSans-69" transform="translate(4405.212891 0)"/>
    <use xlink:href="#DejaVuSans-6e" transform="translate(4432.996094 0)"/>
    <use xlink:href="#DejaVuSans-67" transform="translate(4496.375 0)"/>
    <use xlink:href="#DejaVuSans-20" transform="translate(4559.851562 0)"/>
    <use xlink:href="#DejaVuSans-64" transform="translate(4591.638672 0)"/>
    <use xlink:href="#DejaVuSans-61" transform="translate(4655.115234 0)"/>
    <use xlink:href="#DejaVuSans-74" transform="translate(4716.394531 0)"/>
    <use xlink:href="#DejaVuSans-65" transform="translate(4755.603516 0)"/>
    <use xlink:href="#DejaVuSans-73" transform="translate(4817.126953 0)"/>
    <use xlink:href="#DejaVuSans-20" transform="translate(4869.226562 0)"/>
    <use xlink:href="#DejaVuSans-61" transform="translate(4901.013672 0)"/>
    <use xlink:href="#DejaVuSans-72" transform="translate(4962.292969 0)"/>
    <use xlink:href="#DejaVuSans-65" transform="translate(5001.15625 0)"/>
    <use xlink:href="#DejaVuSans-20" transform="translate(5062.679688 0)"/>
    <use xlink:href="#DejaVuSans-65" transform="translate(5094.466797 0)"/>
    <use xlink:href="#DejaVuSans-76" transform="translate(5155.990234 0)"/>
    <use xlink:href="#DejaVuSans-65" transform="translate(5215.169922 0)"/>
    <use xlink:href="#DejaVuSans-6e" transform="translate(5276.693359 0)"/>
    <use xlink:href="#DejaVuSans-6c" transform="translate(5340.072266 0)"/>
    <use xlink:href="#DejaVuSans-79" transform="translate(5367.855469 0)"/>
    <use xlink:href="#DejaVuSans-20" transform="translate(5427.035156 0)"/>
    <use xlink:href="#DejaVuSans-73" transform="translate(5458.822266 0)"/>
    <use xlink:href="#DejaVuSans-70" transform="translate(5510.921875 0)"/>
    <use xlink:href="#DejaVuSans-61" transform="translate(5574.398438 0)"/>
    <use xlink:href="#DejaVuSans-63" transform="translate(5635.677734 0)"/>
    <use xlink:href="#DejaVuSans-65" transform="translate(5690.658203 0)"/>
    <use xlink:href="#DejaVuSans-64" transform="translate(5752.181641 0)"/>
    <use xlink:href="#DejaVuSans-2e" transform="translate(5815.658203 0)"/>
   </g>
  </g>
  <g id="text_21">
   <!-- Historical full-session description · one stock-hour is 3,600 passing symbol-seconds · not executable opportunity time -->
   <g style="fill: #475569" transform="translate(85.5 448.3584) scale(0.095 -0.095)">
    <defs>
     <path id="DejaVuSans-48" d="M 628 4666 
L 1259 4666 
L 1259 2753 
L 3553 2753 
L 3553 4666 
L 4184 4666 
L 4184 0 
L 3553 0 
L 3553 2222 
L 1259 2222 
L 1259 0 
L 628 0 
L 628 4666 
z
" transform="scale(0.015625)"/>
     <path id="DejaVuSans-66" d="M 2375 4863 
L 2375 4384 
L 1825 4384 
Q 1516 4384 1395 4259 
Q 1275 4134 1275 3809 
L 1275 3500 
L 2222 3500 
L 2222 3053 
L 1275 3053 
L 1275 0 
L 697 0 
L 697 3053 
L 147 3053 
L 147 3500 
L 697 3500 
L 697 3744 
Q 697 4328 969 4595 
Q 1241 4863 1831 4863 
L 2375 4863 
z
" transform="scale(0.015625)"/>
     <path id="DejaVuSans-78" d="M 3513 3500 
L 2247 1797 
L 3578 0 
L 2900 0 
L 1881 1375 
L 863 0 
L 184 0 
L 1544 1831 
L 300 3500 
L 978 3500 
L 1906 2253 
L 2834 3500 
L 3513 3500 
z
" transform="scale(0.015625)"/>
    </defs>
    <use xlink:href="#DejaVuSans-48"/>
    <use xlink:href="#DejaVuSans-69" transform="translate(75.195312 0)"/>
    <use xlink:href="#DejaVuSans-73" transform="translate(102.978516 0)"/>
    <use xlink:href="#DejaVuSans-74" transform="translate(155.078125 0)"/>
    <use xlink:href="#DejaVuSans-6f" transform="translate(194.287109 0)"/>
    <use xlink:href="#DejaVuSans-72" transform="translate(255.46875 0)"/>
    <use xlink:href="#DejaVuSans-69" transform="translate(296.582031 0)"/>
    <use xlink:href="#DejaVuSans-63" transform="translate(324.365234 0)"/>
    <use xlink:href="#DejaVuSans-61" transform="translate(379.345703 0)"/>
    <use xlink:href="#DejaVuSans-6c" transform="translate(440.625 0)"/>
    <use xlink:href="#DejaVuSans-20" transform="translate(468.408203 0)"/>
    <use xlink:href="#DejaVuSans-66" transform="translate(500.195312 0)"/>
    <use xlink:href="#DejaVuSans-75" transform="translate(535.400391 0)"/>
    <use xlink:href="#DejaVuSans-6c" transform="translate(598.779297 0)"/>
    <use xlink:href="#DejaVuSans-6c" transform="translate(626.5625 0)"/>
    <use xlink:href="#DejaVuSans-2d" transform="translate(654.345703 0)"/>
    <use xlink:href="#DejaVuSans-73" transform="translate(690.429688 0)"/>
    <use xlink:href="#DejaVuSans-65" transform="translate(742.529297 0)"/>
    <use xlink:href="#DejaVuSans-73" transform="translate(804.052734 0)"/>
    <use xlink:href="#DejaVuSans-73" transform="translate(856.152344 0)"/>
    <use xlink:href="#DejaVuSans-69" transform="translate(908.251953 0)"/>
    <use xlink:href="#DejaVuSans-6f" transform="translate(936.035156 0)"/>
    <use xlink:href="#DejaVuSans-6e" transform="translate(997.216797 0)"/>
    <use xlink:href="#DejaVuSans-20" transform="translate(1060.595703 0)"/>
    <use xlink:href="#DejaVuSans-64" transform="translate(1092.382812 0)"/>
    <use xlink:href="#DejaVuSans-65" transform="translate(1155.859375 0)"/>
    <use xlink:href="#DejaVuSans-73" transform="translate(1217.382812 0)"/>
    <use xlink:href="#DejaVuSans-63" transform="translate(1269.482422 0)"/>
    <use xlink:href="#DejaVuSans-72" transform="translate(1324.462891 0)"/>
    <use xlink:href="#DejaVuSans-69" transform="translate(1365.576172 0)"/>
    <use xlink:href="#DejaVuSans-70" transform="translate(1393.359375 0)"/>
    <use xlink:href="#DejaVuSans-74" transform="translate(1456.835938 0)"/>
    <use xlink:href="#DejaVuSans-69" transform="translate(1496.044922 0)"/>
    <use xlink:href="#DejaVuSans-6f" transform="translate(1523.828125 0)"/>
    <use xlink:href="#DejaVuSans-6e" transform="translate(1585.009766 0)"/>
    <use xlink:href="#DejaVuSans-20" transform="translate(1648.388672 0)"/>
    <use xlink:href="#DejaVuSans-b7" transform="translate(1680.175781 0)"/>
    <use xlink:href="#DejaVuSans-20" transform="translate(1711.962891 0)"/>
    <use xlink:href="#DejaVuSans-6f" transform="translate(1743.75 0)"/>
    <use xlink:href="#DejaVuSans-6e" transform="translate(1804.931641 0)"/>
    <use xlink:href="#DejaVuSans-65" transform="translate(1868.310547 0)"/>
    <use xlink:href="#DejaVuSans-20" transform="translate(1929.833984 0)"/>
    <use xlink:href="#DejaVuSans-73" transform="translate(1961.621094 0)"/>
    <use xlink:href="#DejaVuSans-74" transform="translate(2013.720703 0)"/>
    <use xlink:href="#DejaVuSans-6f" transform="translate(2052.929688 0)"/>
    <use xlink:href="#DejaVuSans-63" transform="translate(2114.111328 0)"/>
    <use xlink:href="#DejaVuSans-6b" transform="translate(2169.091797 0)"/>
    <use xlink:href="#DejaVuSans-2d" transform="translate(2227.001953 0)"/>
    <use xlink:href="#DejaVuSans-68" transform="translate(2263.085938 0)"/>
    <use xlink:href="#DejaVuSans-6f" transform="translate(2326.464844 0)"/>
    <use xlink:href="#DejaVuSans-75" transform="translate(2387.646484 0)"/>
    <use xlink:href="#DejaVuSans-72" transform="translate(2451.025391 0)"/>
    <use xlink:href="#DejaVuSans-20" transform="translate(2492.138672 0)"/>
    <use xlink:href="#DejaVuSans-69" transform="translate(2523.925781 0)"/>
    <use xlink:href="#DejaVuSans-73" transform="translate(2551.708984 0)"/>
    <use xlink:href="#DejaVuSans-20" transform="translate(2603.808594 0)"/>
    <use xlink:href="#DejaVuSans-33" transform="translate(2635.595703 0)"/>
    <use xlink:href="#DejaVuSans-2c" transform="translate(2699.21875 0)"/>
    <use xlink:href="#DejaVuSans-36" transform="translate(2731.005859 0)"/>
    <use xlink:href="#DejaVuSans-30" transform="translate(2794.628906 0)"/>
    <use xlink:href="#DejaVuSans-30" transform="translate(2858.251953 0)"/>
    <use xlink:href="#DejaVuSans-20" transform="translate(2921.875 0)"/>
    <use xlink:href="#DejaVuSans-70" transform="translate(2953.662109 0)"/>
    <use xlink:href="#DejaVuSans-61" transform="translate(3017.138672 0)"/>
    <use xlink:href="#DejaVuSans-73" transform="translate(3078.417969 0)"/>
    <use xlink:href="#DejaVuSans-73" transform="translate(3130.517578 0)"/>
    <use xlink:href="#DejaVuSans-69" transform="translate(3182.617188 0)"/>
    <use xlink:href="#DejaVuSans-6e" transform="translate(3210.400391 0)"/>
    <use xlink:href="#DejaVuSans-67" transform="translate(3273.779297 0)"/>
    <use xlink:href="#DejaVuSans-20" transform="translate(3337.255859 0)"/>
    <use xlink:href="#DejaVuSans-73" transform="translate(3369.042969 0)"/>
    <use xlink:href="#DejaVuSans-79" transform="translate(3421.142578 0)"/>
    <use xlink:href="#DejaVuSans-6d" transform="translate(3480.322266 0)"/>
    <use xlink:href="#DejaVuSans-62" transform="translate(3577.734375 0)"/>
    <use xlink:href="#DejaVuSans-6f" transform="translate(3641.210938 0)"/>
    <use xlink:href="#DejaVuSans-6c" transform="translate(3702.392578 0)"/>
    <use xlink:href="#DejaVuSans-2d" transform="translate(3730.175781 0)"/>
    <use xlink:href="#DejaVuSans-73" transform="translate(3766.259766 0)"/>
    <use xlink:href="#DejaVuSans-65" transform="translate(3818.359375 0)"/>
    <use xlink:href="#DejaVuSans-63" transform="translate(3879.882812 0)"/>
    <use xlink:href="#DejaVuSans-6f" transform="translate(3934.863281 0)"/>
    <use xlink:href="#DejaVuSans-6e" transform="translate(3996.044922 0)"/>
    <use xlink:href="#DejaVuSans-64" transform="translate(4059.423828 0)"/>
    <use xlink:href="#DejaVuSans-73" transform="translate(4122.900391 0)"/>
    <use xlink:href="#DejaVuSans-20" transform="translate(4175 0)"/>
    <use xlink:href="#DejaVuSans-b7" transform="translate(4206.787109 0)"/>
    <use xlink:href="#DejaVuSans-20" transform="translate(4238.574219 0)"/>
    <use xlink:href="#DejaVuSans-6e" transform="translate(4270.361328 0)"/>
    <use xlink:href="#DejaVuSans-6f" transform="translate(4333.740234 0)"/>
    <use xlink:href="#DejaVuSans-74" transform="translate(4394.921875 0)"/>
    <use xlink:href="#DejaVuSans-20" transform="translate(4434.130859 0)"/>
    <use xlink:href="#DejaVuSans-65" transform="translate(4465.917969 0)"/>
    <use xlink:href="#DejaVuSans-78" transform="translate(4525.691406 0)"/>
    <use xlink:href="#DejaVuSans-65" transform="translate(4581.746094 0)"/>
    <use xlink:href="#DejaVuSans-63" transform="translate(4643.269531 0)"/>
    <use xlink:href="#DejaVuSans-75" transform="translate(4698.25 0)"/>
    <use xlink:href="#DejaVuSans-74" transform="translate(4761.628906 0)"/>
    <use xlink:href="#DejaVuSans-61" transform="translate(4800.837891 0)"/>
    <use xlink:href="#DejaVuSans-62" transform="translate(4862.117188 0)"/>
    <use xlink:href="#DejaVuSans-6c" transform="translate(4925.59375 0)"/>
    <use xlink:href="#DejaVuSans-65" transform="translate(4953.376953 0)"/>
    <use xlink:href="#DejaVuSans-20" transform="translate(5014.900391 0)"/>
    <use xlink:href="#DejaVuSans-6f" transform="translate(5046.6875 0)"/>
    <use xlink:href="#DejaVuSans-70" transform="translate(5107.869141 0)"/>
    <use xlink:href="#DejaVuSans-70" transform="translate(5171.345703 0)"/>
    <use xlink:href="#DejaVuSans-6f" transform="translate(5234.822266 0)"/>
    <use xlink:href="#DejaVuSans-72" transform="translate(5296.003906 0)"/>
    <use xlink:href="#DejaVuSans-74" transform="translate(5337.117188 0)"/>
    <use xlink:href="#DejaVuSans-75" transform="translate(5376.326172 0)"/>
    <use xlink:href="#DejaVuSans-6e" transform="translate(5439.705078 0)"/>
    <use xlink:href="#DejaVuSans-69" transform="translate(5503.083984 0)"/>
    <use xlink:href="#DejaVuSans-74" transform="translate(5530.867188 0)"/>
    <use xlink:href="#DejaVuSans-79" transform="translate(5570.076172 0)"/>
    <use xlink:href="#DejaVuSans-20" transform="translate(5629.255859 0)"/>
    <use xlink:href="#DejaVuSans-74" transform="translate(5661.042969 0)"/>
    <use xlink:href="#DejaVuSans-69" transform="translate(5700.251953 0)"/>
    <use xlink:href="#DejaVuSans-6d" transform="translate(5728.035156 0)"/>
    <use xlink:href="#DejaVuSans-65" transform="translate(5825.447266 0)"/>
   </g>
  </g>
 </g>
 <defs>
  <clipPath id="pfb37e2c7fc">
   <rect x="81" y="105.984" width="796.5" height="271.872"/>
  </clipPath>
 </defs>
</svg>
